G04 EAGLE Gerber RS-274X export*
G75*
%MOMM*%
%FSLAX34Y34*%
%LPD*%
%INSoldermask Top*%
%IPPOS*%
%AMOC8*
5,1,8,0,0,1.08239X$1,22.5*%
G01*
%ADD10R,1.503200X1.803200*%
%ADD11R,1.503200X1.703200*%
%ADD12R,1.703200X1.503200*%
%ADD13C,0.431109*%
%ADD14C,0.352238*%
%ADD15C,0.588772*%
%ADD16C,2.003200*%
%ADD17C,0.967231*%
%ADD18C,1.643200*%
%ADD19C,0.302400*%
%ADD20C,2.183200*%
%ADD21C,0.506016*%
%ADD22C,0.550950*%
%ADD23C,2.543200*%
%ADD24C,0.655600*%


D10*
X263050Y199390D03*
X283050Y199390D03*
X341790Y533400D03*
X361790Y533400D03*
X264320Y281940D03*
X284320Y281940D03*
X491650Y364490D03*
X511650Y364490D03*
X543720Y321310D03*
X563720Y321310D03*
X263050Y314960D03*
X283050Y314960D03*
X491650Y321310D03*
X511650Y321310D03*
X263050Y245110D03*
X283050Y245110D03*
X129700Y203200D03*
X149700Y203200D03*
X354490Y566420D03*
X374490Y566420D03*
D11*
X264820Y387350D03*
X283820Y387350D03*
D12*
X318770Y431190D03*
X318770Y450190D03*
X280670Y431190D03*
X280670Y450190D03*
X506730Y452780D03*
X506730Y471780D03*
D11*
X494690Y562610D03*
X513690Y562610D03*
X428650Y575310D03*
X447650Y575310D03*
X436270Y511810D03*
X455270Y511810D03*
X264820Y349250D03*
X283820Y349250D03*
X18440Y591820D03*
X37440Y591820D03*
X544220Y363220D03*
X563220Y363220D03*
X132740Y238760D03*
X151740Y238760D03*
D12*
X441960Y431190D03*
X441960Y450190D03*
X391160Y431190D03*
X391160Y450190D03*
X365760Y431190D03*
X365760Y450190D03*
X416560Y431190D03*
X416560Y450190D03*
D13*
X303579Y556039D02*
X303579Y568761D01*
X305801Y568761D01*
X305801Y556039D01*
X303579Y556039D01*
X303579Y560134D02*
X305801Y560134D01*
X305801Y564229D02*
X303579Y564229D01*
X303579Y568324D02*
X305801Y568324D01*
X297079Y568761D02*
X297079Y556039D01*
X297079Y568761D02*
X299301Y568761D01*
X299301Y556039D01*
X297079Y556039D01*
X297079Y560134D02*
X299301Y560134D01*
X299301Y564229D02*
X297079Y564229D01*
X297079Y568324D02*
X299301Y568324D01*
X290579Y568761D02*
X290579Y556039D01*
X290579Y568761D02*
X292801Y568761D01*
X292801Y556039D01*
X290579Y556039D01*
X290579Y560134D02*
X292801Y560134D01*
X292801Y564229D02*
X290579Y564229D01*
X290579Y568324D02*
X292801Y568324D01*
X284079Y568761D02*
X284079Y556039D01*
X284079Y568761D02*
X286301Y568761D01*
X286301Y556039D01*
X284079Y556039D01*
X284079Y560134D02*
X286301Y560134D01*
X286301Y564229D02*
X284079Y564229D01*
X284079Y568324D02*
X286301Y568324D01*
X277579Y568761D02*
X277579Y556039D01*
X277579Y568761D02*
X279801Y568761D01*
X279801Y556039D01*
X277579Y556039D01*
X277579Y560134D02*
X279801Y560134D01*
X279801Y564229D02*
X277579Y564229D01*
X277579Y568324D02*
X279801Y568324D01*
X271079Y568761D02*
X271079Y556039D01*
X271079Y568761D02*
X273301Y568761D01*
X273301Y556039D01*
X271079Y556039D01*
X271079Y560134D02*
X273301Y560134D01*
X273301Y564229D02*
X271079Y564229D01*
X271079Y568324D02*
X273301Y568324D01*
X264579Y568761D02*
X264579Y556039D01*
X264579Y568761D02*
X266801Y568761D01*
X266801Y556039D01*
X264579Y556039D01*
X264579Y560134D02*
X266801Y560134D01*
X266801Y564229D02*
X264579Y564229D01*
X264579Y568324D02*
X266801Y568324D01*
X258079Y568761D02*
X258079Y556039D01*
X258079Y568761D02*
X260301Y568761D01*
X260301Y556039D01*
X258079Y556039D01*
X258079Y560134D02*
X260301Y560134D01*
X260301Y564229D02*
X258079Y564229D01*
X258079Y568324D02*
X260301Y568324D01*
X303579Y510761D02*
X303579Y498039D01*
X303579Y510761D02*
X305801Y510761D01*
X305801Y498039D01*
X303579Y498039D01*
X303579Y502134D02*
X305801Y502134D01*
X305801Y506229D02*
X303579Y506229D01*
X303579Y510324D02*
X305801Y510324D01*
X297079Y510761D02*
X297079Y498039D01*
X297079Y510761D02*
X299301Y510761D01*
X299301Y498039D01*
X297079Y498039D01*
X297079Y502134D02*
X299301Y502134D01*
X299301Y506229D02*
X297079Y506229D01*
X297079Y510324D02*
X299301Y510324D01*
X290579Y510761D02*
X290579Y498039D01*
X290579Y510761D02*
X292801Y510761D01*
X292801Y498039D01*
X290579Y498039D01*
X290579Y502134D02*
X292801Y502134D01*
X292801Y506229D02*
X290579Y506229D01*
X290579Y510324D02*
X292801Y510324D01*
X284079Y510761D02*
X284079Y498039D01*
X284079Y510761D02*
X286301Y510761D01*
X286301Y498039D01*
X284079Y498039D01*
X284079Y502134D02*
X286301Y502134D01*
X286301Y506229D02*
X284079Y506229D01*
X284079Y510324D02*
X286301Y510324D01*
X277579Y510761D02*
X277579Y498039D01*
X277579Y510761D02*
X279801Y510761D01*
X279801Y498039D01*
X277579Y498039D01*
X277579Y502134D02*
X279801Y502134D01*
X279801Y506229D02*
X277579Y506229D01*
X277579Y510324D02*
X279801Y510324D01*
X271079Y510761D02*
X271079Y498039D01*
X271079Y510761D02*
X273301Y510761D01*
X273301Y498039D01*
X271079Y498039D01*
X271079Y502134D02*
X273301Y502134D01*
X273301Y506229D02*
X271079Y506229D01*
X271079Y510324D02*
X273301Y510324D01*
X264579Y510761D02*
X264579Y498039D01*
X264579Y510761D02*
X266801Y510761D01*
X266801Y498039D01*
X264579Y498039D01*
X264579Y502134D02*
X266801Y502134D01*
X266801Y506229D02*
X264579Y506229D01*
X264579Y510324D02*
X266801Y510324D01*
X258079Y510761D02*
X258079Y498039D01*
X258079Y510761D02*
X260301Y510761D01*
X260301Y498039D01*
X258079Y498039D01*
X258079Y502134D02*
X260301Y502134D01*
X260301Y506229D02*
X258079Y506229D01*
X258079Y510324D02*
X260301Y510324D01*
D14*
X432215Y312345D02*
X442725Y312345D01*
X442725Y310835D01*
X432215Y310835D01*
X432215Y312345D01*
X432215Y317345D02*
X442725Y317345D01*
X442725Y315835D01*
X432215Y315835D01*
X432215Y317345D01*
X432215Y322345D02*
X442725Y322345D01*
X442725Y320835D01*
X432215Y320835D01*
X432215Y322345D01*
X432215Y327345D02*
X442725Y327345D01*
X442725Y325835D01*
X432215Y325835D01*
X432215Y327345D01*
X432215Y332345D02*
X442725Y332345D01*
X442725Y330835D01*
X432215Y330835D01*
X432215Y332345D01*
X432215Y337345D02*
X442725Y337345D01*
X442725Y335835D01*
X432215Y335835D01*
X432215Y337345D01*
X432215Y342345D02*
X442725Y342345D01*
X442725Y340835D01*
X432215Y340835D01*
X432215Y342345D01*
X432215Y347345D02*
X442725Y347345D01*
X442725Y345835D01*
X432215Y345835D01*
X432215Y347345D01*
X432215Y352345D02*
X442725Y352345D01*
X442725Y350835D01*
X432215Y350835D01*
X432215Y352345D01*
X432215Y357345D02*
X442725Y357345D01*
X442725Y355835D01*
X432215Y355835D01*
X432215Y357345D01*
X432215Y362345D02*
X442725Y362345D01*
X442725Y360835D01*
X432215Y360835D01*
X432215Y362345D01*
X432215Y367345D02*
X442725Y367345D01*
X442725Y365835D01*
X432215Y365835D01*
X432215Y367345D01*
X357725Y312345D02*
X347215Y312345D01*
X357725Y312345D02*
X357725Y310835D01*
X347215Y310835D01*
X347215Y312345D01*
X347215Y317345D02*
X357725Y317345D01*
X357725Y315835D01*
X347215Y315835D01*
X347215Y317345D01*
X347215Y322345D02*
X357725Y322345D01*
X357725Y320835D01*
X347215Y320835D01*
X347215Y322345D01*
X347215Y327345D02*
X357725Y327345D01*
X357725Y325835D01*
X347215Y325835D01*
X347215Y327345D01*
X347215Y332345D02*
X357725Y332345D01*
X357725Y330835D01*
X347215Y330835D01*
X347215Y332345D01*
X347215Y337345D02*
X357725Y337345D01*
X357725Y335835D01*
X347215Y335835D01*
X347215Y337345D01*
X347215Y342345D02*
X357725Y342345D01*
X357725Y340835D01*
X347215Y340835D01*
X347215Y342345D01*
X347215Y347345D02*
X357725Y347345D01*
X357725Y345835D01*
X347215Y345835D01*
X347215Y347345D01*
X347215Y352345D02*
X357725Y352345D01*
X357725Y350835D01*
X347215Y350835D01*
X347215Y352345D01*
X347215Y357345D02*
X357725Y357345D01*
X357725Y355835D01*
X347215Y355835D01*
X347215Y357345D01*
X347215Y362345D02*
X357725Y362345D01*
X357725Y360835D01*
X347215Y360835D01*
X347215Y362345D01*
X347215Y367345D02*
X357725Y367345D01*
X357725Y365835D01*
X347215Y365835D01*
X347215Y367345D01*
X368225Y301845D02*
X368225Y291335D01*
X366715Y291335D01*
X366715Y301845D01*
X368225Y301845D01*
X368225Y294681D02*
X366715Y294681D01*
X366715Y298027D02*
X368225Y298027D01*
X368225Y301373D02*
X366715Y301373D01*
X373225Y301845D02*
X373225Y291335D01*
X371715Y291335D01*
X371715Y301845D01*
X373225Y301845D01*
X373225Y294681D02*
X371715Y294681D01*
X371715Y298027D02*
X373225Y298027D01*
X373225Y301373D02*
X371715Y301373D01*
X378225Y301845D02*
X378225Y291335D01*
X376715Y291335D01*
X376715Y301845D01*
X378225Y301845D01*
X378225Y294681D02*
X376715Y294681D01*
X376715Y298027D02*
X378225Y298027D01*
X378225Y301373D02*
X376715Y301373D01*
X383225Y301845D02*
X383225Y291335D01*
X381715Y291335D01*
X381715Y301845D01*
X383225Y301845D01*
X383225Y294681D02*
X381715Y294681D01*
X381715Y298027D02*
X383225Y298027D01*
X383225Y301373D02*
X381715Y301373D01*
X388225Y301845D02*
X388225Y291335D01*
X386715Y291335D01*
X386715Y301845D01*
X388225Y301845D01*
X388225Y294681D02*
X386715Y294681D01*
X386715Y298027D02*
X388225Y298027D01*
X388225Y301373D02*
X386715Y301373D01*
X393225Y301845D02*
X393225Y291335D01*
X391715Y291335D01*
X391715Y301845D01*
X393225Y301845D01*
X393225Y294681D02*
X391715Y294681D01*
X391715Y298027D02*
X393225Y298027D01*
X393225Y301373D02*
X391715Y301373D01*
X398225Y301845D02*
X398225Y291335D01*
X396715Y291335D01*
X396715Y301845D01*
X398225Y301845D01*
X398225Y294681D02*
X396715Y294681D01*
X396715Y298027D02*
X398225Y298027D01*
X398225Y301373D02*
X396715Y301373D01*
X403225Y301845D02*
X403225Y291335D01*
X401715Y291335D01*
X401715Y301845D01*
X403225Y301845D01*
X403225Y294681D02*
X401715Y294681D01*
X401715Y298027D02*
X403225Y298027D01*
X403225Y301373D02*
X401715Y301373D01*
X408225Y301845D02*
X408225Y291335D01*
X406715Y291335D01*
X406715Y301845D01*
X408225Y301845D01*
X408225Y294681D02*
X406715Y294681D01*
X406715Y298027D02*
X408225Y298027D01*
X408225Y301373D02*
X406715Y301373D01*
X413225Y301845D02*
X413225Y291335D01*
X411715Y291335D01*
X411715Y301845D01*
X413225Y301845D01*
X413225Y294681D02*
X411715Y294681D01*
X411715Y298027D02*
X413225Y298027D01*
X413225Y301373D02*
X411715Y301373D01*
X418225Y301845D02*
X418225Y291335D01*
X416715Y291335D01*
X416715Y301845D01*
X418225Y301845D01*
X418225Y294681D02*
X416715Y294681D01*
X416715Y298027D02*
X418225Y298027D01*
X418225Y301373D02*
X416715Y301373D01*
X423225Y301845D02*
X423225Y291335D01*
X421715Y291335D01*
X421715Y301845D01*
X423225Y301845D01*
X423225Y294681D02*
X421715Y294681D01*
X421715Y298027D02*
X423225Y298027D01*
X423225Y301373D02*
X421715Y301373D01*
X368225Y376335D02*
X368225Y386845D01*
X368225Y376335D02*
X366715Y376335D01*
X366715Y386845D01*
X368225Y386845D01*
X368225Y379681D02*
X366715Y379681D01*
X366715Y383027D02*
X368225Y383027D01*
X368225Y386373D02*
X366715Y386373D01*
X373225Y386845D02*
X373225Y376335D01*
X371715Y376335D01*
X371715Y386845D01*
X373225Y386845D01*
X373225Y379681D02*
X371715Y379681D01*
X371715Y383027D02*
X373225Y383027D01*
X373225Y386373D02*
X371715Y386373D01*
X378225Y386845D02*
X378225Y376335D01*
X376715Y376335D01*
X376715Y386845D01*
X378225Y386845D01*
X378225Y379681D02*
X376715Y379681D01*
X376715Y383027D02*
X378225Y383027D01*
X378225Y386373D02*
X376715Y386373D01*
X383225Y386845D02*
X383225Y376335D01*
X381715Y376335D01*
X381715Y386845D01*
X383225Y386845D01*
X383225Y379681D02*
X381715Y379681D01*
X381715Y383027D02*
X383225Y383027D01*
X383225Y386373D02*
X381715Y386373D01*
X388225Y386845D02*
X388225Y376335D01*
X386715Y376335D01*
X386715Y386845D01*
X388225Y386845D01*
X388225Y379681D02*
X386715Y379681D01*
X386715Y383027D02*
X388225Y383027D01*
X388225Y386373D02*
X386715Y386373D01*
X393225Y386845D02*
X393225Y376335D01*
X391715Y376335D01*
X391715Y386845D01*
X393225Y386845D01*
X393225Y379681D02*
X391715Y379681D01*
X391715Y383027D02*
X393225Y383027D01*
X393225Y386373D02*
X391715Y386373D01*
X398225Y386845D02*
X398225Y376335D01*
X396715Y376335D01*
X396715Y386845D01*
X398225Y386845D01*
X398225Y379681D02*
X396715Y379681D01*
X396715Y383027D02*
X398225Y383027D01*
X398225Y386373D02*
X396715Y386373D01*
X403225Y386845D02*
X403225Y376335D01*
X401715Y376335D01*
X401715Y386845D01*
X403225Y386845D01*
X403225Y379681D02*
X401715Y379681D01*
X401715Y383027D02*
X403225Y383027D01*
X403225Y386373D02*
X401715Y386373D01*
X408225Y386845D02*
X408225Y376335D01*
X406715Y376335D01*
X406715Y386845D01*
X408225Y386845D01*
X408225Y379681D02*
X406715Y379681D01*
X406715Y383027D02*
X408225Y383027D01*
X408225Y386373D02*
X406715Y386373D01*
X413225Y386845D02*
X413225Y376335D01*
X411715Y376335D01*
X411715Y386845D01*
X413225Y386845D01*
X413225Y379681D02*
X411715Y379681D01*
X411715Y383027D02*
X413225Y383027D01*
X413225Y386373D02*
X411715Y386373D01*
X418225Y386845D02*
X418225Y376335D01*
X416715Y376335D01*
X416715Y386845D01*
X418225Y386845D01*
X418225Y379681D02*
X416715Y379681D01*
X416715Y383027D02*
X418225Y383027D01*
X418225Y386373D02*
X416715Y386373D01*
X423225Y386845D02*
X423225Y376335D01*
X421715Y376335D01*
X421715Y386845D01*
X423225Y386845D01*
X423225Y379681D02*
X421715Y379681D01*
X421715Y383027D02*
X423225Y383027D01*
X423225Y386373D02*
X421715Y386373D01*
D15*
X204320Y436014D02*
X178966Y436014D01*
X178966Y439778D01*
X204320Y439778D01*
X204320Y436014D01*
X204320Y448714D02*
X178966Y448714D01*
X178966Y452478D01*
X204320Y452478D01*
X204320Y448714D01*
X204320Y372514D02*
X178966Y372514D01*
X178966Y376278D01*
X204320Y376278D01*
X204320Y372514D01*
X204320Y385214D02*
X178966Y385214D01*
X178966Y388978D01*
X204320Y388978D01*
X204320Y385214D01*
X204320Y410614D02*
X178966Y410614D01*
X178966Y414378D01*
X204320Y414378D01*
X204320Y410614D01*
X204320Y461414D02*
X178966Y461414D01*
X178966Y465178D01*
X204320Y465178D01*
X204320Y461414D01*
X204320Y397914D02*
X178966Y397914D01*
X178966Y401678D01*
X204320Y401678D01*
X204320Y397914D01*
X204320Y423314D02*
X178966Y423314D01*
X178966Y427078D01*
X204320Y427078D01*
X204320Y423314D01*
D16*
X163322Y492252D03*
X163322Y345440D03*
D17*
X180858Y496326D02*
X202428Y496326D01*
X180858Y496326D02*
X180858Y503926D01*
X202428Y503926D01*
X202428Y496326D01*
X202428Y334274D02*
X180858Y334274D01*
X180858Y341874D01*
X202428Y341874D01*
X202428Y334274D01*
X202428Y476514D02*
X180858Y476514D01*
X180858Y484114D01*
X202428Y484114D01*
X202428Y476514D01*
X202428Y354086D02*
X180858Y354086D01*
X180858Y361686D01*
X202428Y361686D01*
X202428Y354086D01*
D18*
X652780Y313690D03*
X652780Y339090D03*
D19*
X17674Y560106D02*
X16666Y560106D01*
X16666Y565114D01*
X17674Y565114D01*
X17674Y560106D01*
X17674Y562979D02*
X16666Y562979D01*
X35666Y560106D02*
X36674Y560106D01*
X35666Y560106D02*
X35666Y565114D01*
X36674Y565114D01*
X36674Y560106D01*
X36674Y562979D02*
X35666Y562979D01*
D20*
X425450Y203200D03*
X400050Y203200D03*
X374650Y203200D03*
X349250Y203200D03*
D21*
X216094Y234894D02*
X216094Y237866D01*
X219066Y237866D01*
X219066Y234894D01*
X216094Y234894D01*
X216094Y254894D02*
X216094Y257866D01*
X219066Y257866D01*
X219066Y254894D01*
X216094Y254894D01*
X197494Y247866D02*
X197494Y244894D01*
X197494Y247866D02*
X200466Y247866D01*
X200466Y244894D01*
X197494Y244894D01*
D22*
X28411Y245529D02*
X21889Y245529D01*
X21889Y249051D01*
X28411Y249051D01*
X28411Y245529D01*
X28411Y208149D02*
X21889Y208149D01*
X21889Y211671D01*
X28411Y211671D01*
X28411Y208149D01*
X83349Y245529D02*
X89871Y245529D01*
X83349Y245529D02*
X83349Y249051D01*
X89871Y249051D01*
X89871Y245529D01*
X89871Y208149D02*
X83349Y208149D01*
X83349Y211671D01*
X89871Y211671D01*
X89871Y208149D01*
D23*
X654300Y463761D03*
X654300Y412961D03*
D24*
X217170Y358140D03*
X215900Y317500D03*
X277162Y584200D03*
X342900Y571500D03*
X54610Y591820D03*
X266700Y584200D03*
X285750Y586740D03*
X298450Y586740D03*
X254000Y486410D03*
X394970Y566420D03*
X394970Y533400D03*
X219710Y500380D03*
X218440Y450850D03*
X218440Y374650D03*
X218440Y337820D03*
X584200Y368300D03*
X586740Y316230D03*
X511810Y383540D03*
X511810Y300990D03*
X302260Y314960D03*
X302260Y281940D03*
X302260Y245110D03*
X302260Y199390D03*
X232410Y229870D03*
X171450Y203200D03*
X372110Y400050D03*
X457200Y346710D03*
X417830Y279400D03*
X334010Y316230D03*
X86360Y261620D03*
X212421Y422579D03*
X215900Y393700D03*
X469900Y381000D03*
X425450Y220980D03*
X425450Y285750D03*
X360680Y408940D03*
X247650Y562610D03*
X330200Y562610D03*
X425450Y254000D03*
X177800Y256540D03*
X205740Y256540D03*
X266700Y546100D03*
X419100Y520700D03*
X330200Y330200D03*
X330200Y234950D03*
X368300Y220980D03*
X368300Y283210D03*
X508000Y431800D03*
X457200Y338122D03*
X161290Y220980D03*
X355600Y242570D03*
X457200Y241300D03*
X457200Y325120D03*
X317500Y546100D03*
X488418Y482600D03*
X353060Y464820D03*
X417830Y463550D03*
X292100Y520700D03*
X372745Y478155D03*
X317500Y393700D03*
X435914Y389586D03*
X317500Y419100D03*
X444500Y406400D03*
X471474Y540054D03*
X462280Y530860D03*
M02*
