G04 EAGLE Gerber RS-274X export*
G75*
%MOMM*%
%FSLAX34Y34*%
%LPD*%
%INSolderpaste Top*%
%IPPOS*%
%AMOC8*
5,1,8,0,0,1.08239X$1,22.5*%
G01*
%ADD10R,1.300000X1.600000*%
%ADD11R,1.300000X1.500000*%
%ADD12R,1.500000X1.300000*%
%ADD13C,0.225000*%
%ADD14C,0.150000*%
%ADD15C,0.381000*%
%ADD16C,0.762000*%
%ADD17C,0.100000*%
%ADD18C,0.300000*%
%ADD19C,0.350000*%


D10*
X263050Y199390D03*
X283050Y199390D03*
X341790Y533400D03*
X361790Y533400D03*
X264320Y281940D03*
X284320Y281940D03*
X491650Y364490D03*
X511650Y364490D03*
X543720Y321310D03*
X563720Y321310D03*
X263050Y314960D03*
X283050Y314960D03*
X491650Y321310D03*
X511650Y321310D03*
X263050Y245110D03*
X283050Y245110D03*
X129700Y203200D03*
X149700Y203200D03*
X354490Y566420D03*
X374490Y566420D03*
D11*
X264820Y387350D03*
X283820Y387350D03*
D12*
X318770Y431190D03*
X318770Y450190D03*
X280670Y431190D03*
X280670Y450190D03*
X506730Y452780D03*
X506730Y471780D03*
D11*
X494690Y562610D03*
X513690Y562610D03*
X428650Y575310D03*
X447650Y575310D03*
X436270Y511810D03*
X455270Y511810D03*
X264820Y349250D03*
X283820Y349250D03*
X18440Y591820D03*
X37440Y591820D03*
X544220Y363220D03*
X563220Y363220D03*
X132740Y238760D03*
X151740Y238760D03*
D12*
X441960Y431190D03*
X441960Y450190D03*
X391160Y431190D03*
X391160Y450190D03*
X365760Y431190D03*
X365760Y450190D03*
X416560Y431190D03*
X416560Y450190D03*
D13*
X303565Y556025D02*
X303565Y568775D01*
X305815Y568775D01*
X305815Y556025D01*
X303565Y556025D01*
X303565Y558162D02*
X305815Y558162D01*
X305815Y560299D02*
X303565Y560299D01*
X303565Y562436D02*
X305815Y562436D01*
X305815Y564573D02*
X303565Y564573D01*
X303565Y566710D02*
X305815Y566710D01*
X297065Y568775D02*
X297065Y556025D01*
X297065Y568775D02*
X299315Y568775D01*
X299315Y556025D01*
X297065Y556025D01*
X297065Y558162D02*
X299315Y558162D01*
X299315Y560299D02*
X297065Y560299D01*
X297065Y562436D02*
X299315Y562436D01*
X299315Y564573D02*
X297065Y564573D01*
X297065Y566710D02*
X299315Y566710D01*
X290565Y568775D02*
X290565Y556025D01*
X290565Y568775D02*
X292815Y568775D01*
X292815Y556025D01*
X290565Y556025D01*
X290565Y558162D02*
X292815Y558162D01*
X292815Y560299D02*
X290565Y560299D01*
X290565Y562436D02*
X292815Y562436D01*
X292815Y564573D02*
X290565Y564573D01*
X290565Y566710D02*
X292815Y566710D01*
X284065Y568775D02*
X284065Y556025D01*
X284065Y568775D02*
X286315Y568775D01*
X286315Y556025D01*
X284065Y556025D01*
X284065Y558162D02*
X286315Y558162D01*
X286315Y560299D02*
X284065Y560299D01*
X284065Y562436D02*
X286315Y562436D01*
X286315Y564573D02*
X284065Y564573D01*
X284065Y566710D02*
X286315Y566710D01*
X277565Y568775D02*
X277565Y556025D01*
X277565Y568775D02*
X279815Y568775D01*
X279815Y556025D01*
X277565Y556025D01*
X277565Y558162D02*
X279815Y558162D01*
X279815Y560299D02*
X277565Y560299D01*
X277565Y562436D02*
X279815Y562436D01*
X279815Y564573D02*
X277565Y564573D01*
X277565Y566710D02*
X279815Y566710D01*
X271065Y568775D02*
X271065Y556025D01*
X271065Y568775D02*
X273315Y568775D01*
X273315Y556025D01*
X271065Y556025D01*
X271065Y558162D02*
X273315Y558162D01*
X273315Y560299D02*
X271065Y560299D01*
X271065Y562436D02*
X273315Y562436D01*
X273315Y564573D02*
X271065Y564573D01*
X271065Y566710D02*
X273315Y566710D01*
X264565Y568775D02*
X264565Y556025D01*
X264565Y568775D02*
X266815Y568775D01*
X266815Y556025D01*
X264565Y556025D01*
X264565Y558162D02*
X266815Y558162D01*
X266815Y560299D02*
X264565Y560299D01*
X264565Y562436D02*
X266815Y562436D01*
X266815Y564573D02*
X264565Y564573D01*
X264565Y566710D02*
X266815Y566710D01*
X258065Y568775D02*
X258065Y556025D01*
X258065Y568775D02*
X260315Y568775D01*
X260315Y556025D01*
X258065Y556025D01*
X258065Y558162D02*
X260315Y558162D01*
X260315Y560299D02*
X258065Y560299D01*
X258065Y562436D02*
X260315Y562436D01*
X260315Y564573D02*
X258065Y564573D01*
X258065Y566710D02*
X260315Y566710D01*
X303565Y510775D02*
X303565Y498025D01*
X303565Y510775D02*
X305815Y510775D01*
X305815Y498025D01*
X303565Y498025D01*
X303565Y500162D02*
X305815Y500162D01*
X305815Y502299D02*
X303565Y502299D01*
X303565Y504436D02*
X305815Y504436D01*
X305815Y506573D02*
X303565Y506573D01*
X303565Y508710D02*
X305815Y508710D01*
X297065Y510775D02*
X297065Y498025D01*
X297065Y510775D02*
X299315Y510775D01*
X299315Y498025D01*
X297065Y498025D01*
X297065Y500162D02*
X299315Y500162D01*
X299315Y502299D02*
X297065Y502299D01*
X297065Y504436D02*
X299315Y504436D01*
X299315Y506573D02*
X297065Y506573D01*
X297065Y508710D02*
X299315Y508710D01*
X290565Y510775D02*
X290565Y498025D01*
X290565Y510775D02*
X292815Y510775D01*
X292815Y498025D01*
X290565Y498025D01*
X290565Y500162D02*
X292815Y500162D01*
X292815Y502299D02*
X290565Y502299D01*
X290565Y504436D02*
X292815Y504436D01*
X292815Y506573D02*
X290565Y506573D01*
X290565Y508710D02*
X292815Y508710D01*
X284065Y510775D02*
X284065Y498025D01*
X284065Y510775D02*
X286315Y510775D01*
X286315Y498025D01*
X284065Y498025D01*
X284065Y500162D02*
X286315Y500162D01*
X286315Y502299D02*
X284065Y502299D01*
X284065Y504436D02*
X286315Y504436D01*
X286315Y506573D02*
X284065Y506573D01*
X284065Y508710D02*
X286315Y508710D01*
X277565Y510775D02*
X277565Y498025D01*
X277565Y510775D02*
X279815Y510775D01*
X279815Y498025D01*
X277565Y498025D01*
X277565Y500162D02*
X279815Y500162D01*
X279815Y502299D02*
X277565Y502299D01*
X277565Y504436D02*
X279815Y504436D01*
X279815Y506573D02*
X277565Y506573D01*
X277565Y508710D02*
X279815Y508710D01*
X271065Y510775D02*
X271065Y498025D01*
X271065Y510775D02*
X273315Y510775D01*
X273315Y498025D01*
X271065Y498025D01*
X271065Y500162D02*
X273315Y500162D01*
X273315Y502299D02*
X271065Y502299D01*
X271065Y504436D02*
X273315Y504436D01*
X273315Y506573D02*
X271065Y506573D01*
X271065Y508710D02*
X273315Y508710D01*
X264565Y510775D02*
X264565Y498025D01*
X264565Y510775D02*
X266815Y510775D01*
X266815Y498025D01*
X264565Y498025D01*
X264565Y500162D02*
X266815Y500162D01*
X266815Y502299D02*
X264565Y502299D01*
X264565Y504436D02*
X266815Y504436D01*
X266815Y506573D02*
X264565Y506573D01*
X264565Y508710D02*
X266815Y508710D01*
X258065Y510775D02*
X258065Y498025D01*
X258065Y510775D02*
X260315Y510775D01*
X260315Y498025D01*
X258065Y498025D01*
X258065Y500162D02*
X260315Y500162D01*
X260315Y502299D02*
X258065Y502299D01*
X258065Y504436D02*
X260315Y504436D01*
X260315Y506573D02*
X258065Y506573D01*
X258065Y508710D02*
X260315Y508710D01*
D14*
X432220Y312340D02*
X442720Y312340D01*
X442720Y310840D01*
X432220Y310840D01*
X432220Y312340D01*
X432220Y312265D02*
X442720Y312265D01*
X442720Y317340D02*
X432220Y317340D01*
X442720Y317340D02*
X442720Y315840D01*
X432220Y315840D01*
X432220Y317340D01*
X432220Y317265D02*
X442720Y317265D01*
X442720Y322340D02*
X432220Y322340D01*
X442720Y322340D02*
X442720Y320840D01*
X432220Y320840D01*
X432220Y322340D01*
X432220Y322265D02*
X442720Y322265D01*
X442720Y327340D02*
X432220Y327340D01*
X442720Y327340D02*
X442720Y325840D01*
X432220Y325840D01*
X432220Y327340D01*
X432220Y327265D02*
X442720Y327265D01*
X442720Y332340D02*
X432220Y332340D01*
X442720Y332340D02*
X442720Y330840D01*
X432220Y330840D01*
X432220Y332340D01*
X432220Y332265D02*
X442720Y332265D01*
X442720Y337340D02*
X432220Y337340D01*
X442720Y337340D02*
X442720Y335840D01*
X432220Y335840D01*
X432220Y337340D01*
X432220Y337265D02*
X442720Y337265D01*
X442720Y342340D02*
X432220Y342340D01*
X442720Y342340D02*
X442720Y340840D01*
X432220Y340840D01*
X432220Y342340D01*
X432220Y342265D02*
X442720Y342265D01*
X442720Y347340D02*
X432220Y347340D01*
X442720Y347340D02*
X442720Y345840D01*
X432220Y345840D01*
X432220Y347340D01*
X432220Y347265D02*
X442720Y347265D01*
X442720Y352340D02*
X432220Y352340D01*
X442720Y352340D02*
X442720Y350840D01*
X432220Y350840D01*
X432220Y352340D01*
X432220Y352265D02*
X442720Y352265D01*
X442720Y357340D02*
X432220Y357340D01*
X442720Y357340D02*
X442720Y355840D01*
X432220Y355840D01*
X432220Y357340D01*
X432220Y357265D02*
X442720Y357265D01*
X442720Y362340D02*
X432220Y362340D01*
X442720Y362340D02*
X442720Y360840D01*
X432220Y360840D01*
X432220Y362340D01*
X432220Y362265D02*
X442720Y362265D01*
X442720Y367340D02*
X432220Y367340D01*
X442720Y367340D02*
X442720Y365840D01*
X432220Y365840D01*
X432220Y367340D01*
X432220Y367265D02*
X442720Y367265D01*
X357720Y312340D02*
X347220Y312340D01*
X357720Y312340D02*
X357720Y310840D01*
X347220Y310840D01*
X347220Y312340D01*
X347220Y312265D02*
X357720Y312265D01*
X357720Y317340D02*
X347220Y317340D01*
X357720Y317340D02*
X357720Y315840D01*
X347220Y315840D01*
X347220Y317340D01*
X347220Y317265D02*
X357720Y317265D01*
X357720Y322340D02*
X347220Y322340D01*
X357720Y322340D02*
X357720Y320840D01*
X347220Y320840D01*
X347220Y322340D01*
X347220Y322265D02*
X357720Y322265D01*
X357720Y327340D02*
X347220Y327340D01*
X357720Y327340D02*
X357720Y325840D01*
X347220Y325840D01*
X347220Y327340D01*
X347220Y327265D02*
X357720Y327265D01*
X357720Y332340D02*
X347220Y332340D01*
X357720Y332340D02*
X357720Y330840D01*
X347220Y330840D01*
X347220Y332340D01*
X347220Y332265D02*
X357720Y332265D01*
X357720Y337340D02*
X347220Y337340D01*
X357720Y337340D02*
X357720Y335840D01*
X347220Y335840D01*
X347220Y337340D01*
X347220Y337265D02*
X357720Y337265D01*
X357720Y342340D02*
X347220Y342340D01*
X357720Y342340D02*
X357720Y340840D01*
X347220Y340840D01*
X347220Y342340D01*
X347220Y342265D02*
X357720Y342265D01*
X357720Y347340D02*
X347220Y347340D01*
X357720Y347340D02*
X357720Y345840D01*
X347220Y345840D01*
X347220Y347340D01*
X347220Y347265D02*
X357720Y347265D01*
X357720Y352340D02*
X347220Y352340D01*
X357720Y352340D02*
X357720Y350840D01*
X347220Y350840D01*
X347220Y352340D01*
X347220Y352265D02*
X357720Y352265D01*
X357720Y357340D02*
X347220Y357340D01*
X357720Y357340D02*
X357720Y355840D01*
X347220Y355840D01*
X347220Y357340D01*
X347220Y357265D02*
X357720Y357265D01*
X357720Y362340D02*
X347220Y362340D01*
X357720Y362340D02*
X357720Y360840D01*
X347220Y360840D01*
X347220Y362340D01*
X347220Y362265D02*
X357720Y362265D01*
X357720Y367340D02*
X347220Y367340D01*
X357720Y367340D02*
X357720Y365840D01*
X347220Y365840D01*
X347220Y367340D01*
X347220Y367265D02*
X357720Y367265D01*
X368220Y301840D02*
X368220Y291340D01*
X366720Y291340D01*
X366720Y301840D01*
X368220Y301840D01*
X368220Y292765D02*
X366720Y292765D01*
X366720Y294190D02*
X368220Y294190D01*
X368220Y295615D02*
X366720Y295615D01*
X366720Y297040D02*
X368220Y297040D01*
X368220Y298465D02*
X366720Y298465D01*
X366720Y299890D02*
X368220Y299890D01*
X368220Y301315D02*
X366720Y301315D01*
X373220Y301840D02*
X373220Y291340D01*
X371720Y291340D01*
X371720Y301840D01*
X373220Y301840D01*
X373220Y292765D02*
X371720Y292765D01*
X371720Y294190D02*
X373220Y294190D01*
X373220Y295615D02*
X371720Y295615D01*
X371720Y297040D02*
X373220Y297040D01*
X373220Y298465D02*
X371720Y298465D01*
X371720Y299890D02*
X373220Y299890D01*
X373220Y301315D02*
X371720Y301315D01*
X378220Y301840D02*
X378220Y291340D01*
X376720Y291340D01*
X376720Y301840D01*
X378220Y301840D01*
X378220Y292765D02*
X376720Y292765D01*
X376720Y294190D02*
X378220Y294190D01*
X378220Y295615D02*
X376720Y295615D01*
X376720Y297040D02*
X378220Y297040D01*
X378220Y298465D02*
X376720Y298465D01*
X376720Y299890D02*
X378220Y299890D01*
X378220Y301315D02*
X376720Y301315D01*
X383220Y301840D02*
X383220Y291340D01*
X381720Y291340D01*
X381720Y301840D01*
X383220Y301840D01*
X383220Y292765D02*
X381720Y292765D01*
X381720Y294190D02*
X383220Y294190D01*
X383220Y295615D02*
X381720Y295615D01*
X381720Y297040D02*
X383220Y297040D01*
X383220Y298465D02*
X381720Y298465D01*
X381720Y299890D02*
X383220Y299890D01*
X383220Y301315D02*
X381720Y301315D01*
X388220Y301840D02*
X388220Y291340D01*
X386720Y291340D01*
X386720Y301840D01*
X388220Y301840D01*
X388220Y292765D02*
X386720Y292765D01*
X386720Y294190D02*
X388220Y294190D01*
X388220Y295615D02*
X386720Y295615D01*
X386720Y297040D02*
X388220Y297040D01*
X388220Y298465D02*
X386720Y298465D01*
X386720Y299890D02*
X388220Y299890D01*
X388220Y301315D02*
X386720Y301315D01*
X393220Y301840D02*
X393220Y291340D01*
X391720Y291340D01*
X391720Y301840D01*
X393220Y301840D01*
X393220Y292765D02*
X391720Y292765D01*
X391720Y294190D02*
X393220Y294190D01*
X393220Y295615D02*
X391720Y295615D01*
X391720Y297040D02*
X393220Y297040D01*
X393220Y298465D02*
X391720Y298465D01*
X391720Y299890D02*
X393220Y299890D01*
X393220Y301315D02*
X391720Y301315D01*
X398220Y301840D02*
X398220Y291340D01*
X396720Y291340D01*
X396720Y301840D01*
X398220Y301840D01*
X398220Y292765D02*
X396720Y292765D01*
X396720Y294190D02*
X398220Y294190D01*
X398220Y295615D02*
X396720Y295615D01*
X396720Y297040D02*
X398220Y297040D01*
X398220Y298465D02*
X396720Y298465D01*
X396720Y299890D02*
X398220Y299890D01*
X398220Y301315D02*
X396720Y301315D01*
X403220Y301840D02*
X403220Y291340D01*
X401720Y291340D01*
X401720Y301840D01*
X403220Y301840D01*
X403220Y292765D02*
X401720Y292765D01*
X401720Y294190D02*
X403220Y294190D01*
X403220Y295615D02*
X401720Y295615D01*
X401720Y297040D02*
X403220Y297040D01*
X403220Y298465D02*
X401720Y298465D01*
X401720Y299890D02*
X403220Y299890D01*
X403220Y301315D02*
X401720Y301315D01*
X408220Y301840D02*
X408220Y291340D01*
X406720Y291340D01*
X406720Y301840D01*
X408220Y301840D01*
X408220Y292765D02*
X406720Y292765D01*
X406720Y294190D02*
X408220Y294190D01*
X408220Y295615D02*
X406720Y295615D01*
X406720Y297040D02*
X408220Y297040D01*
X408220Y298465D02*
X406720Y298465D01*
X406720Y299890D02*
X408220Y299890D01*
X408220Y301315D02*
X406720Y301315D01*
X413220Y301840D02*
X413220Y291340D01*
X411720Y291340D01*
X411720Y301840D01*
X413220Y301840D01*
X413220Y292765D02*
X411720Y292765D01*
X411720Y294190D02*
X413220Y294190D01*
X413220Y295615D02*
X411720Y295615D01*
X411720Y297040D02*
X413220Y297040D01*
X413220Y298465D02*
X411720Y298465D01*
X411720Y299890D02*
X413220Y299890D01*
X413220Y301315D02*
X411720Y301315D01*
X418220Y301840D02*
X418220Y291340D01*
X416720Y291340D01*
X416720Y301840D01*
X418220Y301840D01*
X418220Y292765D02*
X416720Y292765D01*
X416720Y294190D02*
X418220Y294190D01*
X418220Y295615D02*
X416720Y295615D01*
X416720Y297040D02*
X418220Y297040D01*
X418220Y298465D02*
X416720Y298465D01*
X416720Y299890D02*
X418220Y299890D01*
X418220Y301315D02*
X416720Y301315D01*
X423220Y301840D02*
X423220Y291340D01*
X421720Y291340D01*
X421720Y301840D01*
X423220Y301840D01*
X423220Y292765D02*
X421720Y292765D01*
X421720Y294190D02*
X423220Y294190D01*
X423220Y295615D02*
X421720Y295615D01*
X421720Y297040D02*
X423220Y297040D01*
X423220Y298465D02*
X421720Y298465D01*
X421720Y299890D02*
X423220Y299890D01*
X423220Y301315D02*
X421720Y301315D01*
X368220Y376340D02*
X368220Y386840D01*
X368220Y376340D02*
X366720Y376340D01*
X366720Y386840D01*
X368220Y386840D01*
X368220Y377765D02*
X366720Y377765D01*
X366720Y379190D02*
X368220Y379190D01*
X368220Y380615D02*
X366720Y380615D01*
X366720Y382040D02*
X368220Y382040D01*
X368220Y383465D02*
X366720Y383465D01*
X366720Y384890D02*
X368220Y384890D01*
X368220Y386315D02*
X366720Y386315D01*
X373220Y386840D02*
X373220Y376340D01*
X371720Y376340D01*
X371720Y386840D01*
X373220Y386840D01*
X373220Y377765D02*
X371720Y377765D01*
X371720Y379190D02*
X373220Y379190D01*
X373220Y380615D02*
X371720Y380615D01*
X371720Y382040D02*
X373220Y382040D01*
X373220Y383465D02*
X371720Y383465D01*
X371720Y384890D02*
X373220Y384890D01*
X373220Y386315D02*
X371720Y386315D01*
X378220Y386840D02*
X378220Y376340D01*
X376720Y376340D01*
X376720Y386840D01*
X378220Y386840D01*
X378220Y377765D02*
X376720Y377765D01*
X376720Y379190D02*
X378220Y379190D01*
X378220Y380615D02*
X376720Y380615D01*
X376720Y382040D02*
X378220Y382040D01*
X378220Y383465D02*
X376720Y383465D01*
X376720Y384890D02*
X378220Y384890D01*
X378220Y386315D02*
X376720Y386315D01*
X383220Y386840D02*
X383220Y376340D01*
X381720Y376340D01*
X381720Y386840D01*
X383220Y386840D01*
X383220Y377765D02*
X381720Y377765D01*
X381720Y379190D02*
X383220Y379190D01*
X383220Y380615D02*
X381720Y380615D01*
X381720Y382040D02*
X383220Y382040D01*
X383220Y383465D02*
X381720Y383465D01*
X381720Y384890D02*
X383220Y384890D01*
X383220Y386315D02*
X381720Y386315D01*
X388220Y386840D02*
X388220Y376340D01*
X386720Y376340D01*
X386720Y386840D01*
X388220Y386840D01*
X388220Y377765D02*
X386720Y377765D01*
X386720Y379190D02*
X388220Y379190D01*
X388220Y380615D02*
X386720Y380615D01*
X386720Y382040D02*
X388220Y382040D01*
X388220Y383465D02*
X386720Y383465D01*
X386720Y384890D02*
X388220Y384890D01*
X388220Y386315D02*
X386720Y386315D01*
X393220Y386840D02*
X393220Y376340D01*
X391720Y376340D01*
X391720Y386840D01*
X393220Y386840D01*
X393220Y377765D02*
X391720Y377765D01*
X391720Y379190D02*
X393220Y379190D01*
X393220Y380615D02*
X391720Y380615D01*
X391720Y382040D02*
X393220Y382040D01*
X393220Y383465D02*
X391720Y383465D01*
X391720Y384890D02*
X393220Y384890D01*
X393220Y386315D02*
X391720Y386315D01*
X398220Y386840D02*
X398220Y376340D01*
X396720Y376340D01*
X396720Y386840D01*
X398220Y386840D01*
X398220Y377765D02*
X396720Y377765D01*
X396720Y379190D02*
X398220Y379190D01*
X398220Y380615D02*
X396720Y380615D01*
X396720Y382040D02*
X398220Y382040D01*
X398220Y383465D02*
X396720Y383465D01*
X396720Y384890D02*
X398220Y384890D01*
X398220Y386315D02*
X396720Y386315D01*
X403220Y386840D02*
X403220Y376340D01*
X401720Y376340D01*
X401720Y386840D01*
X403220Y386840D01*
X403220Y377765D02*
X401720Y377765D01*
X401720Y379190D02*
X403220Y379190D01*
X403220Y380615D02*
X401720Y380615D01*
X401720Y382040D02*
X403220Y382040D01*
X403220Y383465D02*
X401720Y383465D01*
X401720Y384890D02*
X403220Y384890D01*
X403220Y386315D02*
X401720Y386315D01*
X408220Y386840D02*
X408220Y376340D01*
X406720Y376340D01*
X406720Y386840D01*
X408220Y386840D01*
X408220Y377765D02*
X406720Y377765D01*
X406720Y379190D02*
X408220Y379190D01*
X408220Y380615D02*
X406720Y380615D01*
X406720Y382040D02*
X408220Y382040D01*
X408220Y383465D02*
X406720Y383465D01*
X406720Y384890D02*
X408220Y384890D01*
X408220Y386315D02*
X406720Y386315D01*
X413220Y386840D02*
X413220Y376340D01*
X411720Y376340D01*
X411720Y386840D01*
X413220Y386840D01*
X413220Y377765D02*
X411720Y377765D01*
X411720Y379190D02*
X413220Y379190D01*
X413220Y380615D02*
X411720Y380615D01*
X411720Y382040D02*
X413220Y382040D01*
X413220Y383465D02*
X411720Y383465D01*
X411720Y384890D02*
X413220Y384890D01*
X413220Y386315D02*
X411720Y386315D01*
X418220Y386840D02*
X418220Y376340D01*
X416720Y376340D01*
X416720Y386840D01*
X418220Y386840D01*
X418220Y377765D02*
X416720Y377765D01*
X416720Y379190D02*
X418220Y379190D01*
X418220Y380615D02*
X416720Y380615D01*
X416720Y382040D02*
X418220Y382040D01*
X418220Y383465D02*
X416720Y383465D01*
X416720Y384890D02*
X418220Y384890D01*
X418220Y386315D02*
X416720Y386315D01*
X423220Y386840D02*
X423220Y376340D01*
X421720Y376340D01*
X421720Y386840D01*
X423220Y386840D01*
X423220Y377765D02*
X421720Y377765D01*
X421720Y379190D02*
X423220Y379190D01*
X423220Y380615D02*
X421720Y380615D01*
X421720Y382040D02*
X423220Y382040D01*
X423220Y383465D02*
X421720Y383465D01*
X421720Y384890D02*
X423220Y384890D01*
X423220Y386315D02*
X421720Y386315D01*
D15*
X204343Y435991D02*
X178943Y435991D01*
X178943Y439801D01*
X204343Y439801D01*
X204343Y435991D01*
X204343Y439610D02*
X178943Y439610D01*
X178943Y448691D02*
X204343Y448691D01*
X178943Y448691D02*
X178943Y452501D01*
X204343Y452501D01*
X204343Y448691D01*
X204343Y452310D02*
X178943Y452310D01*
X178943Y372491D02*
X204343Y372491D01*
X178943Y372491D02*
X178943Y376301D01*
X204343Y376301D01*
X204343Y372491D01*
X204343Y376110D02*
X178943Y376110D01*
X178943Y385191D02*
X204343Y385191D01*
X178943Y385191D02*
X178943Y389001D01*
X204343Y389001D01*
X204343Y385191D01*
X204343Y388810D02*
X178943Y388810D01*
X178943Y410591D02*
X204343Y410591D01*
X178943Y410591D02*
X178943Y414401D01*
X204343Y414401D01*
X204343Y410591D01*
X204343Y414210D02*
X178943Y414210D01*
X178943Y461391D02*
X204343Y461391D01*
X178943Y461391D02*
X178943Y465201D01*
X204343Y465201D01*
X204343Y461391D01*
X204343Y465010D02*
X178943Y465010D01*
X178943Y397891D02*
X204343Y397891D01*
X178943Y397891D02*
X178943Y401701D01*
X204343Y401701D01*
X204343Y397891D01*
X204343Y401510D02*
X178943Y401510D01*
X178943Y423291D02*
X204343Y423291D01*
X178943Y423291D02*
X178943Y427101D01*
X204343Y427101D01*
X204343Y423291D01*
X204343Y426910D02*
X178943Y426910D01*
D16*
X180848Y496316D02*
X202438Y496316D01*
X180848Y496316D02*
X180848Y503936D01*
X202438Y503936D01*
X202438Y496316D01*
X202438Y503555D02*
X180848Y503555D01*
X180848Y334264D02*
X202438Y334264D01*
X180848Y334264D02*
X180848Y341884D01*
X202438Y341884D01*
X202438Y334264D01*
X202438Y341503D02*
X180848Y341503D01*
X180848Y476504D02*
X202438Y476504D01*
X180848Y476504D02*
X180848Y484124D01*
X202438Y484124D01*
X202438Y476504D01*
X202438Y483743D02*
X180848Y483743D01*
X180848Y354076D02*
X202438Y354076D01*
X180848Y354076D02*
X180848Y361696D01*
X202438Y361696D01*
X202438Y354076D01*
X202438Y361315D02*
X180848Y361315D01*
D17*
X17670Y560110D02*
X16670Y560110D01*
X16670Y565110D01*
X17670Y565110D01*
X17670Y560110D01*
X17670Y561060D02*
X16670Y561060D01*
X16670Y562010D02*
X17670Y562010D01*
X17670Y562960D02*
X16670Y562960D01*
X16670Y563910D02*
X17670Y563910D01*
X17670Y564860D02*
X16670Y564860D01*
X35670Y560110D02*
X36670Y560110D01*
X35670Y560110D02*
X35670Y565110D01*
X36670Y565110D01*
X36670Y560110D01*
X36670Y561060D02*
X35670Y561060D01*
X35670Y562010D02*
X36670Y562010D01*
X36670Y562960D02*
X35670Y562960D01*
X35670Y563910D02*
X36670Y563910D01*
X36670Y564860D02*
X35670Y564860D01*
D18*
X216080Y237880D02*
X216080Y234880D01*
X216080Y237880D02*
X219080Y237880D01*
X219080Y234880D01*
X216080Y234880D01*
X216080Y237730D02*
X219080Y237730D01*
X216080Y254880D02*
X216080Y257880D01*
X219080Y257880D01*
X219080Y254880D01*
X216080Y254880D01*
X216080Y257730D02*
X219080Y257730D01*
X197480Y247880D02*
X197480Y244880D01*
X197480Y247880D02*
X200480Y247880D01*
X200480Y244880D01*
X197480Y244880D01*
X197480Y247730D02*
X200480Y247730D01*
D19*
X28400Y245540D02*
X21900Y245540D01*
X21900Y249040D01*
X28400Y249040D01*
X28400Y245540D01*
X28400Y248865D02*
X21900Y248865D01*
X21900Y208160D02*
X28400Y208160D01*
X21900Y208160D02*
X21900Y211660D01*
X28400Y211660D01*
X28400Y208160D01*
X28400Y211485D02*
X21900Y211485D01*
X83360Y245540D02*
X89860Y245540D01*
X83360Y245540D02*
X83360Y249040D01*
X89860Y249040D01*
X89860Y245540D01*
X89860Y248865D02*
X83360Y248865D01*
X83360Y208160D02*
X89860Y208160D01*
X83360Y208160D02*
X83360Y211660D01*
X89860Y211660D01*
X89860Y208160D01*
X89860Y211485D02*
X83360Y211485D01*
M02*
