G04 EAGLE Gerber RS-274X export*
G75*
%MOMM*%
%FSLAX34Y34*%
%LPD*%
%INTop Copper*%
%IPPOS*%
%AMOC8*
5,1,8,0,0,1.08239X$1,22.5*%
G01*
%ADD10R,1.300000X1.600000*%
%ADD11R,1.300000X1.500000*%
%ADD12R,1.500000X1.300000*%
%ADD13C,0.225000*%
%ADD14C,0.150000*%
%ADD15C,0.381000*%
%ADD16C,1.800000*%
%ADD17C,2.971800*%
%ADD18C,0.762000*%
%ADD19C,1.440000*%
%ADD20C,0.100000*%
%ADD21C,1.980000*%
%ADD22C,0.300000*%
%ADD23C,0.350000*%
%ADD24C,2.340000*%
%ADD25C,0.254000*%
%ADD26C,0.452400*%
%ADD27C,0.152400*%


D10*
X263050Y199390D03*
X283050Y199390D03*
X341790Y533400D03*
X361790Y533400D03*
X264320Y281940D03*
X284320Y281940D03*
X491650Y364490D03*
X511650Y364490D03*
X543720Y321310D03*
X563720Y321310D03*
X263050Y314960D03*
X283050Y314960D03*
X491650Y321310D03*
X511650Y321310D03*
X263050Y245110D03*
X283050Y245110D03*
X129700Y203200D03*
X149700Y203200D03*
X354490Y566420D03*
X374490Y566420D03*
D11*
X264820Y387350D03*
X283820Y387350D03*
D12*
X318770Y431190D03*
X318770Y450190D03*
X280670Y431190D03*
X280670Y450190D03*
X506730Y452780D03*
X506730Y471780D03*
D11*
X494690Y562610D03*
X513690Y562610D03*
X428650Y575310D03*
X447650Y575310D03*
X436270Y511810D03*
X455270Y511810D03*
X264820Y349250D03*
X283820Y349250D03*
X18440Y591820D03*
X37440Y591820D03*
X544220Y363220D03*
X563220Y363220D03*
X132740Y238760D03*
X151740Y238760D03*
D12*
X441960Y431190D03*
X441960Y450190D03*
X391160Y431190D03*
X391160Y450190D03*
X365760Y431190D03*
X365760Y450190D03*
X416560Y431190D03*
X416560Y450190D03*
D13*
X303565Y556025D02*
X303565Y568775D01*
X305815Y568775D01*
X305815Y556025D01*
X303565Y556025D01*
X303565Y558162D02*
X305815Y558162D01*
X305815Y560299D02*
X303565Y560299D01*
X303565Y562436D02*
X305815Y562436D01*
X305815Y564573D02*
X303565Y564573D01*
X303565Y566710D02*
X305815Y566710D01*
X297065Y568775D02*
X297065Y556025D01*
X297065Y568775D02*
X299315Y568775D01*
X299315Y556025D01*
X297065Y556025D01*
X297065Y558162D02*
X299315Y558162D01*
X299315Y560299D02*
X297065Y560299D01*
X297065Y562436D02*
X299315Y562436D01*
X299315Y564573D02*
X297065Y564573D01*
X297065Y566710D02*
X299315Y566710D01*
X290565Y568775D02*
X290565Y556025D01*
X290565Y568775D02*
X292815Y568775D01*
X292815Y556025D01*
X290565Y556025D01*
X290565Y558162D02*
X292815Y558162D01*
X292815Y560299D02*
X290565Y560299D01*
X290565Y562436D02*
X292815Y562436D01*
X292815Y564573D02*
X290565Y564573D01*
X290565Y566710D02*
X292815Y566710D01*
X284065Y568775D02*
X284065Y556025D01*
X284065Y568775D02*
X286315Y568775D01*
X286315Y556025D01*
X284065Y556025D01*
X284065Y558162D02*
X286315Y558162D01*
X286315Y560299D02*
X284065Y560299D01*
X284065Y562436D02*
X286315Y562436D01*
X286315Y564573D02*
X284065Y564573D01*
X284065Y566710D02*
X286315Y566710D01*
X277565Y568775D02*
X277565Y556025D01*
X277565Y568775D02*
X279815Y568775D01*
X279815Y556025D01*
X277565Y556025D01*
X277565Y558162D02*
X279815Y558162D01*
X279815Y560299D02*
X277565Y560299D01*
X277565Y562436D02*
X279815Y562436D01*
X279815Y564573D02*
X277565Y564573D01*
X277565Y566710D02*
X279815Y566710D01*
X271065Y568775D02*
X271065Y556025D01*
X271065Y568775D02*
X273315Y568775D01*
X273315Y556025D01*
X271065Y556025D01*
X271065Y558162D02*
X273315Y558162D01*
X273315Y560299D02*
X271065Y560299D01*
X271065Y562436D02*
X273315Y562436D01*
X273315Y564573D02*
X271065Y564573D01*
X271065Y566710D02*
X273315Y566710D01*
X264565Y568775D02*
X264565Y556025D01*
X264565Y568775D02*
X266815Y568775D01*
X266815Y556025D01*
X264565Y556025D01*
X264565Y558162D02*
X266815Y558162D01*
X266815Y560299D02*
X264565Y560299D01*
X264565Y562436D02*
X266815Y562436D01*
X266815Y564573D02*
X264565Y564573D01*
X264565Y566710D02*
X266815Y566710D01*
X258065Y568775D02*
X258065Y556025D01*
X258065Y568775D02*
X260315Y568775D01*
X260315Y556025D01*
X258065Y556025D01*
X258065Y558162D02*
X260315Y558162D01*
X260315Y560299D02*
X258065Y560299D01*
X258065Y562436D02*
X260315Y562436D01*
X260315Y564573D02*
X258065Y564573D01*
X258065Y566710D02*
X260315Y566710D01*
X303565Y510775D02*
X303565Y498025D01*
X303565Y510775D02*
X305815Y510775D01*
X305815Y498025D01*
X303565Y498025D01*
X303565Y500162D02*
X305815Y500162D01*
X305815Y502299D02*
X303565Y502299D01*
X303565Y504436D02*
X305815Y504436D01*
X305815Y506573D02*
X303565Y506573D01*
X303565Y508710D02*
X305815Y508710D01*
X297065Y510775D02*
X297065Y498025D01*
X297065Y510775D02*
X299315Y510775D01*
X299315Y498025D01*
X297065Y498025D01*
X297065Y500162D02*
X299315Y500162D01*
X299315Y502299D02*
X297065Y502299D01*
X297065Y504436D02*
X299315Y504436D01*
X299315Y506573D02*
X297065Y506573D01*
X297065Y508710D02*
X299315Y508710D01*
X290565Y510775D02*
X290565Y498025D01*
X290565Y510775D02*
X292815Y510775D01*
X292815Y498025D01*
X290565Y498025D01*
X290565Y500162D02*
X292815Y500162D01*
X292815Y502299D02*
X290565Y502299D01*
X290565Y504436D02*
X292815Y504436D01*
X292815Y506573D02*
X290565Y506573D01*
X290565Y508710D02*
X292815Y508710D01*
X284065Y510775D02*
X284065Y498025D01*
X284065Y510775D02*
X286315Y510775D01*
X286315Y498025D01*
X284065Y498025D01*
X284065Y500162D02*
X286315Y500162D01*
X286315Y502299D02*
X284065Y502299D01*
X284065Y504436D02*
X286315Y504436D01*
X286315Y506573D02*
X284065Y506573D01*
X284065Y508710D02*
X286315Y508710D01*
X277565Y510775D02*
X277565Y498025D01*
X277565Y510775D02*
X279815Y510775D01*
X279815Y498025D01*
X277565Y498025D01*
X277565Y500162D02*
X279815Y500162D01*
X279815Y502299D02*
X277565Y502299D01*
X277565Y504436D02*
X279815Y504436D01*
X279815Y506573D02*
X277565Y506573D01*
X277565Y508710D02*
X279815Y508710D01*
X271065Y510775D02*
X271065Y498025D01*
X271065Y510775D02*
X273315Y510775D01*
X273315Y498025D01*
X271065Y498025D01*
X271065Y500162D02*
X273315Y500162D01*
X273315Y502299D02*
X271065Y502299D01*
X271065Y504436D02*
X273315Y504436D01*
X273315Y506573D02*
X271065Y506573D01*
X271065Y508710D02*
X273315Y508710D01*
X264565Y510775D02*
X264565Y498025D01*
X264565Y510775D02*
X266815Y510775D01*
X266815Y498025D01*
X264565Y498025D01*
X264565Y500162D02*
X266815Y500162D01*
X266815Y502299D02*
X264565Y502299D01*
X264565Y504436D02*
X266815Y504436D01*
X266815Y506573D02*
X264565Y506573D01*
X264565Y508710D02*
X266815Y508710D01*
X258065Y510775D02*
X258065Y498025D01*
X258065Y510775D02*
X260315Y510775D01*
X260315Y498025D01*
X258065Y498025D01*
X258065Y500162D02*
X260315Y500162D01*
X260315Y502299D02*
X258065Y502299D01*
X258065Y504436D02*
X260315Y504436D01*
X260315Y506573D02*
X258065Y506573D01*
X258065Y508710D02*
X260315Y508710D01*
D14*
X432220Y312340D02*
X442720Y312340D01*
X442720Y310840D01*
X432220Y310840D01*
X432220Y312340D01*
X432220Y312265D02*
X442720Y312265D01*
X442720Y317340D02*
X432220Y317340D01*
X442720Y317340D02*
X442720Y315840D01*
X432220Y315840D01*
X432220Y317340D01*
X432220Y317265D02*
X442720Y317265D01*
X442720Y322340D02*
X432220Y322340D01*
X442720Y322340D02*
X442720Y320840D01*
X432220Y320840D01*
X432220Y322340D01*
X432220Y322265D02*
X442720Y322265D01*
X442720Y327340D02*
X432220Y327340D01*
X442720Y327340D02*
X442720Y325840D01*
X432220Y325840D01*
X432220Y327340D01*
X432220Y327265D02*
X442720Y327265D01*
X442720Y332340D02*
X432220Y332340D01*
X442720Y332340D02*
X442720Y330840D01*
X432220Y330840D01*
X432220Y332340D01*
X432220Y332265D02*
X442720Y332265D01*
X442720Y337340D02*
X432220Y337340D01*
X442720Y337340D02*
X442720Y335840D01*
X432220Y335840D01*
X432220Y337340D01*
X432220Y337265D02*
X442720Y337265D01*
X442720Y342340D02*
X432220Y342340D01*
X442720Y342340D02*
X442720Y340840D01*
X432220Y340840D01*
X432220Y342340D01*
X432220Y342265D02*
X442720Y342265D01*
X442720Y347340D02*
X432220Y347340D01*
X442720Y347340D02*
X442720Y345840D01*
X432220Y345840D01*
X432220Y347340D01*
X432220Y347265D02*
X442720Y347265D01*
X442720Y352340D02*
X432220Y352340D01*
X442720Y352340D02*
X442720Y350840D01*
X432220Y350840D01*
X432220Y352340D01*
X432220Y352265D02*
X442720Y352265D01*
X442720Y357340D02*
X432220Y357340D01*
X442720Y357340D02*
X442720Y355840D01*
X432220Y355840D01*
X432220Y357340D01*
X432220Y357265D02*
X442720Y357265D01*
X442720Y362340D02*
X432220Y362340D01*
X442720Y362340D02*
X442720Y360840D01*
X432220Y360840D01*
X432220Y362340D01*
X432220Y362265D02*
X442720Y362265D01*
X442720Y367340D02*
X432220Y367340D01*
X442720Y367340D02*
X442720Y365840D01*
X432220Y365840D01*
X432220Y367340D01*
X432220Y367265D02*
X442720Y367265D01*
X357720Y312340D02*
X347220Y312340D01*
X357720Y312340D02*
X357720Y310840D01*
X347220Y310840D01*
X347220Y312340D01*
X347220Y312265D02*
X357720Y312265D01*
X357720Y317340D02*
X347220Y317340D01*
X357720Y317340D02*
X357720Y315840D01*
X347220Y315840D01*
X347220Y317340D01*
X347220Y317265D02*
X357720Y317265D01*
X357720Y322340D02*
X347220Y322340D01*
X357720Y322340D02*
X357720Y320840D01*
X347220Y320840D01*
X347220Y322340D01*
X347220Y322265D02*
X357720Y322265D01*
X357720Y327340D02*
X347220Y327340D01*
X357720Y327340D02*
X357720Y325840D01*
X347220Y325840D01*
X347220Y327340D01*
X347220Y327265D02*
X357720Y327265D01*
X357720Y332340D02*
X347220Y332340D01*
X357720Y332340D02*
X357720Y330840D01*
X347220Y330840D01*
X347220Y332340D01*
X347220Y332265D02*
X357720Y332265D01*
X357720Y337340D02*
X347220Y337340D01*
X357720Y337340D02*
X357720Y335840D01*
X347220Y335840D01*
X347220Y337340D01*
X347220Y337265D02*
X357720Y337265D01*
X357720Y342340D02*
X347220Y342340D01*
X357720Y342340D02*
X357720Y340840D01*
X347220Y340840D01*
X347220Y342340D01*
X347220Y342265D02*
X357720Y342265D01*
X357720Y347340D02*
X347220Y347340D01*
X357720Y347340D02*
X357720Y345840D01*
X347220Y345840D01*
X347220Y347340D01*
X347220Y347265D02*
X357720Y347265D01*
X357720Y352340D02*
X347220Y352340D01*
X357720Y352340D02*
X357720Y350840D01*
X347220Y350840D01*
X347220Y352340D01*
X347220Y352265D02*
X357720Y352265D01*
X357720Y357340D02*
X347220Y357340D01*
X357720Y357340D02*
X357720Y355840D01*
X347220Y355840D01*
X347220Y357340D01*
X347220Y357265D02*
X357720Y357265D01*
X357720Y362340D02*
X347220Y362340D01*
X357720Y362340D02*
X357720Y360840D01*
X347220Y360840D01*
X347220Y362340D01*
X347220Y362265D02*
X357720Y362265D01*
X357720Y367340D02*
X347220Y367340D01*
X357720Y367340D02*
X357720Y365840D01*
X347220Y365840D01*
X347220Y367340D01*
X347220Y367265D02*
X357720Y367265D01*
X368220Y301840D02*
X368220Y291340D01*
X366720Y291340D01*
X366720Y301840D01*
X368220Y301840D01*
X368220Y292765D02*
X366720Y292765D01*
X366720Y294190D02*
X368220Y294190D01*
X368220Y295615D02*
X366720Y295615D01*
X366720Y297040D02*
X368220Y297040D01*
X368220Y298465D02*
X366720Y298465D01*
X366720Y299890D02*
X368220Y299890D01*
X368220Y301315D02*
X366720Y301315D01*
X373220Y301840D02*
X373220Y291340D01*
X371720Y291340D01*
X371720Y301840D01*
X373220Y301840D01*
X373220Y292765D02*
X371720Y292765D01*
X371720Y294190D02*
X373220Y294190D01*
X373220Y295615D02*
X371720Y295615D01*
X371720Y297040D02*
X373220Y297040D01*
X373220Y298465D02*
X371720Y298465D01*
X371720Y299890D02*
X373220Y299890D01*
X373220Y301315D02*
X371720Y301315D01*
X378220Y301840D02*
X378220Y291340D01*
X376720Y291340D01*
X376720Y301840D01*
X378220Y301840D01*
X378220Y292765D02*
X376720Y292765D01*
X376720Y294190D02*
X378220Y294190D01*
X378220Y295615D02*
X376720Y295615D01*
X376720Y297040D02*
X378220Y297040D01*
X378220Y298465D02*
X376720Y298465D01*
X376720Y299890D02*
X378220Y299890D01*
X378220Y301315D02*
X376720Y301315D01*
X383220Y301840D02*
X383220Y291340D01*
X381720Y291340D01*
X381720Y301840D01*
X383220Y301840D01*
X383220Y292765D02*
X381720Y292765D01*
X381720Y294190D02*
X383220Y294190D01*
X383220Y295615D02*
X381720Y295615D01*
X381720Y297040D02*
X383220Y297040D01*
X383220Y298465D02*
X381720Y298465D01*
X381720Y299890D02*
X383220Y299890D01*
X383220Y301315D02*
X381720Y301315D01*
X388220Y301840D02*
X388220Y291340D01*
X386720Y291340D01*
X386720Y301840D01*
X388220Y301840D01*
X388220Y292765D02*
X386720Y292765D01*
X386720Y294190D02*
X388220Y294190D01*
X388220Y295615D02*
X386720Y295615D01*
X386720Y297040D02*
X388220Y297040D01*
X388220Y298465D02*
X386720Y298465D01*
X386720Y299890D02*
X388220Y299890D01*
X388220Y301315D02*
X386720Y301315D01*
X393220Y301840D02*
X393220Y291340D01*
X391720Y291340D01*
X391720Y301840D01*
X393220Y301840D01*
X393220Y292765D02*
X391720Y292765D01*
X391720Y294190D02*
X393220Y294190D01*
X393220Y295615D02*
X391720Y295615D01*
X391720Y297040D02*
X393220Y297040D01*
X393220Y298465D02*
X391720Y298465D01*
X391720Y299890D02*
X393220Y299890D01*
X393220Y301315D02*
X391720Y301315D01*
X398220Y301840D02*
X398220Y291340D01*
X396720Y291340D01*
X396720Y301840D01*
X398220Y301840D01*
X398220Y292765D02*
X396720Y292765D01*
X396720Y294190D02*
X398220Y294190D01*
X398220Y295615D02*
X396720Y295615D01*
X396720Y297040D02*
X398220Y297040D01*
X398220Y298465D02*
X396720Y298465D01*
X396720Y299890D02*
X398220Y299890D01*
X398220Y301315D02*
X396720Y301315D01*
X403220Y301840D02*
X403220Y291340D01*
X401720Y291340D01*
X401720Y301840D01*
X403220Y301840D01*
X403220Y292765D02*
X401720Y292765D01*
X401720Y294190D02*
X403220Y294190D01*
X403220Y295615D02*
X401720Y295615D01*
X401720Y297040D02*
X403220Y297040D01*
X403220Y298465D02*
X401720Y298465D01*
X401720Y299890D02*
X403220Y299890D01*
X403220Y301315D02*
X401720Y301315D01*
X408220Y301840D02*
X408220Y291340D01*
X406720Y291340D01*
X406720Y301840D01*
X408220Y301840D01*
X408220Y292765D02*
X406720Y292765D01*
X406720Y294190D02*
X408220Y294190D01*
X408220Y295615D02*
X406720Y295615D01*
X406720Y297040D02*
X408220Y297040D01*
X408220Y298465D02*
X406720Y298465D01*
X406720Y299890D02*
X408220Y299890D01*
X408220Y301315D02*
X406720Y301315D01*
X413220Y301840D02*
X413220Y291340D01*
X411720Y291340D01*
X411720Y301840D01*
X413220Y301840D01*
X413220Y292765D02*
X411720Y292765D01*
X411720Y294190D02*
X413220Y294190D01*
X413220Y295615D02*
X411720Y295615D01*
X411720Y297040D02*
X413220Y297040D01*
X413220Y298465D02*
X411720Y298465D01*
X411720Y299890D02*
X413220Y299890D01*
X413220Y301315D02*
X411720Y301315D01*
X418220Y301840D02*
X418220Y291340D01*
X416720Y291340D01*
X416720Y301840D01*
X418220Y301840D01*
X418220Y292765D02*
X416720Y292765D01*
X416720Y294190D02*
X418220Y294190D01*
X418220Y295615D02*
X416720Y295615D01*
X416720Y297040D02*
X418220Y297040D01*
X418220Y298465D02*
X416720Y298465D01*
X416720Y299890D02*
X418220Y299890D01*
X418220Y301315D02*
X416720Y301315D01*
X423220Y301840D02*
X423220Y291340D01*
X421720Y291340D01*
X421720Y301840D01*
X423220Y301840D01*
X423220Y292765D02*
X421720Y292765D01*
X421720Y294190D02*
X423220Y294190D01*
X423220Y295615D02*
X421720Y295615D01*
X421720Y297040D02*
X423220Y297040D01*
X423220Y298465D02*
X421720Y298465D01*
X421720Y299890D02*
X423220Y299890D01*
X423220Y301315D02*
X421720Y301315D01*
X368220Y376340D02*
X368220Y386840D01*
X368220Y376340D02*
X366720Y376340D01*
X366720Y386840D01*
X368220Y386840D01*
X368220Y377765D02*
X366720Y377765D01*
X366720Y379190D02*
X368220Y379190D01*
X368220Y380615D02*
X366720Y380615D01*
X366720Y382040D02*
X368220Y382040D01*
X368220Y383465D02*
X366720Y383465D01*
X366720Y384890D02*
X368220Y384890D01*
X368220Y386315D02*
X366720Y386315D01*
X373220Y386840D02*
X373220Y376340D01*
X371720Y376340D01*
X371720Y386840D01*
X373220Y386840D01*
X373220Y377765D02*
X371720Y377765D01*
X371720Y379190D02*
X373220Y379190D01*
X373220Y380615D02*
X371720Y380615D01*
X371720Y382040D02*
X373220Y382040D01*
X373220Y383465D02*
X371720Y383465D01*
X371720Y384890D02*
X373220Y384890D01*
X373220Y386315D02*
X371720Y386315D01*
X378220Y386840D02*
X378220Y376340D01*
X376720Y376340D01*
X376720Y386840D01*
X378220Y386840D01*
X378220Y377765D02*
X376720Y377765D01*
X376720Y379190D02*
X378220Y379190D01*
X378220Y380615D02*
X376720Y380615D01*
X376720Y382040D02*
X378220Y382040D01*
X378220Y383465D02*
X376720Y383465D01*
X376720Y384890D02*
X378220Y384890D01*
X378220Y386315D02*
X376720Y386315D01*
X383220Y386840D02*
X383220Y376340D01*
X381720Y376340D01*
X381720Y386840D01*
X383220Y386840D01*
X383220Y377765D02*
X381720Y377765D01*
X381720Y379190D02*
X383220Y379190D01*
X383220Y380615D02*
X381720Y380615D01*
X381720Y382040D02*
X383220Y382040D01*
X383220Y383465D02*
X381720Y383465D01*
X381720Y384890D02*
X383220Y384890D01*
X383220Y386315D02*
X381720Y386315D01*
X388220Y386840D02*
X388220Y376340D01*
X386720Y376340D01*
X386720Y386840D01*
X388220Y386840D01*
X388220Y377765D02*
X386720Y377765D01*
X386720Y379190D02*
X388220Y379190D01*
X388220Y380615D02*
X386720Y380615D01*
X386720Y382040D02*
X388220Y382040D01*
X388220Y383465D02*
X386720Y383465D01*
X386720Y384890D02*
X388220Y384890D01*
X388220Y386315D02*
X386720Y386315D01*
X393220Y386840D02*
X393220Y376340D01*
X391720Y376340D01*
X391720Y386840D01*
X393220Y386840D01*
X393220Y377765D02*
X391720Y377765D01*
X391720Y379190D02*
X393220Y379190D01*
X393220Y380615D02*
X391720Y380615D01*
X391720Y382040D02*
X393220Y382040D01*
X393220Y383465D02*
X391720Y383465D01*
X391720Y384890D02*
X393220Y384890D01*
X393220Y386315D02*
X391720Y386315D01*
X398220Y386840D02*
X398220Y376340D01*
X396720Y376340D01*
X396720Y386840D01*
X398220Y386840D01*
X398220Y377765D02*
X396720Y377765D01*
X396720Y379190D02*
X398220Y379190D01*
X398220Y380615D02*
X396720Y380615D01*
X396720Y382040D02*
X398220Y382040D01*
X398220Y383465D02*
X396720Y383465D01*
X396720Y384890D02*
X398220Y384890D01*
X398220Y386315D02*
X396720Y386315D01*
X403220Y386840D02*
X403220Y376340D01*
X401720Y376340D01*
X401720Y386840D01*
X403220Y386840D01*
X403220Y377765D02*
X401720Y377765D01*
X401720Y379190D02*
X403220Y379190D01*
X403220Y380615D02*
X401720Y380615D01*
X401720Y382040D02*
X403220Y382040D01*
X403220Y383465D02*
X401720Y383465D01*
X401720Y384890D02*
X403220Y384890D01*
X403220Y386315D02*
X401720Y386315D01*
X408220Y386840D02*
X408220Y376340D01*
X406720Y376340D01*
X406720Y386840D01*
X408220Y386840D01*
X408220Y377765D02*
X406720Y377765D01*
X406720Y379190D02*
X408220Y379190D01*
X408220Y380615D02*
X406720Y380615D01*
X406720Y382040D02*
X408220Y382040D01*
X408220Y383465D02*
X406720Y383465D01*
X406720Y384890D02*
X408220Y384890D01*
X408220Y386315D02*
X406720Y386315D01*
X413220Y386840D02*
X413220Y376340D01*
X411720Y376340D01*
X411720Y386840D01*
X413220Y386840D01*
X413220Y377765D02*
X411720Y377765D01*
X411720Y379190D02*
X413220Y379190D01*
X413220Y380615D02*
X411720Y380615D01*
X411720Y382040D02*
X413220Y382040D01*
X413220Y383465D02*
X411720Y383465D01*
X411720Y384890D02*
X413220Y384890D01*
X413220Y386315D02*
X411720Y386315D01*
X418220Y386840D02*
X418220Y376340D01*
X416720Y376340D01*
X416720Y386840D01*
X418220Y386840D01*
X418220Y377765D02*
X416720Y377765D01*
X416720Y379190D02*
X418220Y379190D01*
X418220Y380615D02*
X416720Y380615D01*
X416720Y382040D02*
X418220Y382040D01*
X418220Y383465D02*
X416720Y383465D01*
X416720Y384890D02*
X418220Y384890D01*
X418220Y386315D02*
X416720Y386315D01*
X423220Y386840D02*
X423220Y376340D01*
X421720Y376340D01*
X421720Y386840D01*
X423220Y386840D01*
X423220Y377765D02*
X421720Y377765D01*
X421720Y379190D02*
X423220Y379190D01*
X423220Y380615D02*
X421720Y380615D01*
X421720Y382040D02*
X423220Y382040D01*
X423220Y383465D02*
X421720Y383465D01*
X421720Y384890D02*
X423220Y384890D01*
X423220Y386315D02*
X421720Y386315D01*
D15*
X204343Y435991D02*
X178943Y435991D01*
X178943Y439801D01*
X204343Y439801D01*
X204343Y435991D01*
X204343Y439610D02*
X178943Y439610D01*
X178943Y448691D02*
X204343Y448691D01*
X178943Y448691D02*
X178943Y452501D01*
X204343Y452501D01*
X204343Y448691D01*
X204343Y452310D02*
X178943Y452310D01*
X178943Y372491D02*
X204343Y372491D01*
X178943Y372491D02*
X178943Y376301D01*
X204343Y376301D01*
X204343Y372491D01*
X204343Y376110D02*
X178943Y376110D01*
X178943Y385191D02*
X204343Y385191D01*
X178943Y385191D02*
X178943Y389001D01*
X204343Y389001D01*
X204343Y385191D01*
X204343Y388810D02*
X178943Y388810D01*
X178943Y410591D02*
X204343Y410591D01*
X178943Y410591D02*
X178943Y414401D01*
X204343Y414401D01*
X204343Y410591D01*
X204343Y414210D02*
X178943Y414210D01*
X178943Y461391D02*
X204343Y461391D01*
X178943Y461391D02*
X178943Y465201D01*
X204343Y465201D01*
X204343Y461391D01*
X204343Y465010D02*
X178943Y465010D01*
X178943Y397891D02*
X204343Y397891D01*
X178943Y397891D02*
X178943Y401701D01*
X204343Y401701D01*
X204343Y397891D01*
X204343Y401510D02*
X178943Y401510D01*
X178943Y423291D02*
X204343Y423291D01*
X178943Y423291D02*
X178943Y427101D01*
X204343Y427101D01*
X204343Y423291D01*
X204343Y426910D02*
X178943Y426910D01*
D16*
X163322Y492252D03*
X163322Y345440D03*
D17*
X161163Y528574D02*
X190881Y528574D01*
X190881Y308356D02*
X161163Y308356D01*
X84709Y309118D02*
X54991Y309118D01*
X54991Y529336D02*
X84709Y529336D01*
D18*
X180848Y496316D02*
X202438Y496316D01*
X180848Y496316D02*
X180848Y503936D01*
X202438Y503936D01*
X202438Y496316D01*
X202438Y503555D02*
X180848Y503555D01*
X180848Y334264D02*
X202438Y334264D01*
X180848Y334264D02*
X180848Y341884D01*
X202438Y341884D01*
X202438Y334264D01*
X202438Y341503D02*
X180848Y341503D01*
X180848Y476504D02*
X202438Y476504D01*
X180848Y476504D02*
X180848Y484124D01*
X202438Y484124D01*
X202438Y476504D01*
X202438Y483743D02*
X180848Y483743D01*
X180848Y354076D02*
X202438Y354076D01*
X180848Y354076D02*
X180848Y361696D01*
X202438Y361696D01*
X202438Y354076D01*
X202438Y361315D02*
X180848Y361315D01*
D19*
X652780Y313690D03*
X652780Y339090D03*
D20*
X17670Y560110D02*
X16670Y560110D01*
X16670Y565110D01*
X17670Y565110D01*
X17670Y560110D01*
X17670Y561060D02*
X16670Y561060D01*
X16670Y562010D02*
X17670Y562010D01*
X17670Y562960D02*
X16670Y562960D01*
X16670Y563910D02*
X17670Y563910D01*
X17670Y564860D02*
X16670Y564860D01*
X35670Y560110D02*
X36670Y560110D01*
X35670Y560110D02*
X35670Y565110D01*
X36670Y565110D01*
X36670Y560110D01*
X36670Y561060D02*
X35670Y561060D01*
X35670Y562010D02*
X36670Y562010D01*
X36670Y562960D02*
X35670Y562960D01*
X35670Y563910D02*
X36670Y563910D01*
X36670Y564860D02*
X35670Y564860D01*
D21*
X425450Y203200D03*
X400050Y203200D03*
X374650Y203200D03*
X349250Y203200D03*
D22*
X216080Y234880D02*
X216080Y237880D01*
X219080Y237880D01*
X219080Y234880D01*
X216080Y234880D01*
X216080Y237730D02*
X219080Y237730D01*
X216080Y254880D02*
X216080Y257880D01*
X219080Y257880D01*
X219080Y254880D01*
X216080Y254880D01*
X216080Y257730D02*
X219080Y257730D01*
X197480Y247880D02*
X197480Y244880D01*
X197480Y247880D02*
X200480Y247880D01*
X200480Y244880D01*
X197480Y244880D01*
X197480Y247730D02*
X200480Y247730D01*
D23*
X28400Y245540D02*
X21900Y245540D01*
X21900Y249040D01*
X28400Y249040D01*
X28400Y245540D01*
X28400Y248865D02*
X21900Y248865D01*
X21900Y208160D02*
X28400Y208160D01*
X21900Y208160D02*
X21900Y211660D01*
X28400Y211660D01*
X28400Y208160D01*
X28400Y211485D02*
X21900Y211485D01*
X83360Y245540D02*
X89860Y245540D01*
X83360Y245540D02*
X83360Y249040D01*
X89860Y249040D01*
X89860Y245540D01*
X89860Y248865D02*
X83360Y248865D01*
X83360Y208160D02*
X89860Y208160D01*
X83360Y208160D02*
X83360Y211660D01*
X89860Y211660D01*
X89860Y208160D01*
X89860Y211485D02*
X83360Y211485D01*
D24*
X654300Y463761D03*
X654300Y412961D03*
D25*
X216916Y357886D02*
X191643Y357886D01*
X216916Y357886D02*
X217170Y358140D01*
D26*
X217170Y358140D03*
X215900Y317500D03*
D25*
X215900Y292100D01*
X198120Y274320D01*
X198120Y247240D01*
X198980Y246380D01*
X198980Y199800D01*
X199390Y199390D01*
X263050Y199390D01*
D27*
X278690Y562400D02*
X279400Y563110D01*
X279400Y584200D01*
X277162Y584200D01*
D26*
X277162Y584200D03*
X342900Y571500D03*
D27*
X349410Y571500D01*
X354490Y566420D01*
X278690Y562400D02*
X278690Y532690D01*
X256410Y480592D02*
X254000Y480592D01*
X256410Y480592D02*
X266700Y490882D01*
X253722Y480314D02*
X191643Y480314D01*
X253722Y480314D02*
X254000Y480592D01*
X191643Y480314D02*
X175514Y480314D01*
X165100Y469900D01*
X165100Y368300D01*
X266700Y490882D02*
X266700Y503390D01*
X265690Y504400D01*
X265690Y519690D01*
X278690Y532690D01*
X165100Y368300D02*
X175514Y357886D01*
X191643Y357886D01*
D25*
X54610Y591820D02*
X37440Y591820D01*
D26*
X54610Y591820D03*
D25*
X272190Y578710D02*
X272190Y562400D01*
X272190Y578710D02*
X266700Y584200D01*
D26*
X266700Y584200D03*
D25*
X291690Y580800D02*
X291690Y562400D01*
X291690Y580800D02*
X285750Y586740D01*
D26*
X285750Y586740D03*
D25*
X298190Y586480D02*
X298190Y562400D01*
X298190Y586480D02*
X298450Y586740D01*
D26*
X298450Y586740D03*
D25*
X259190Y504400D02*
X259190Y491600D01*
X254000Y486410D01*
D26*
X254000Y486410D03*
D25*
X374490Y566420D02*
X394970Y566420D01*
D26*
X394970Y566420D03*
D25*
X394970Y533400D02*
X361790Y533400D01*
D26*
X394970Y533400D03*
D25*
X219456Y500126D02*
X191643Y500126D01*
X219456Y500126D02*
X219710Y500380D01*
D26*
X219710Y500380D03*
D25*
X218186Y450596D02*
X191643Y450596D01*
X218186Y450596D02*
X218440Y450850D01*
D26*
X218440Y450850D03*
D25*
X218186Y374396D02*
X191643Y374396D01*
X218186Y374396D02*
X218440Y374650D01*
D26*
X218440Y374650D03*
D25*
X218186Y338074D02*
X191643Y338074D01*
X218186Y338074D02*
X218440Y337820D01*
D26*
X218440Y337820D03*
D25*
X563220Y363220D02*
X579120Y363220D01*
X584200Y368300D01*
D26*
X584200Y368300D03*
D25*
X581660Y321310D02*
X563720Y321310D01*
X581660Y321310D02*
X586740Y316230D01*
D26*
X586740Y316230D03*
D25*
X511650Y364490D02*
X511650Y383380D01*
X511810Y383540D01*
D26*
X511810Y383540D03*
D25*
X511650Y321310D02*
X511650Y301150D01*
X511810Y300990D01*
D26*
X511810Y300990D03*
D25*
X302260Y314960D02*
X283050Y314960D01*
D26*
X302260Y314960D03*
D25*
X302260Y281940D02*
X284320Y281940D01*
D26*
X302260Y281940D03*
D25*
X302260Y245110D02*
X283050Y245110D01*
D26*
X302260Y245110D03*
D25*
X302260Y199390D02*
X283050Y199390D01*
D26*
X302260Y199390D03*
D25*
X232000Y230280D02*
X217580Y236380D01*
X232000Y230280D02*
X232410Y229870D01*
D26*
X232410Y229870D03*
D25*
X171450Y203200D02*
X149700Y203200D01*
D26*
X171450Y203200D03*
D25*
X372470Y381590D02*
X372470Y399690D01*
X372110Y400050D01*
D26*
X372110Y400050D03*
D25*
X437470Y346590D02*
X457080Y346590D01*
X457200Y346710D01*
D26*
X457200Y346710D03*
D25*
X417470Y296590D02*
X417470Y279760D01*
X417830Y279400D01*
D26*
X417830Y279400D03*
D25*
X352470Y316590D02*
X334370Y316590D01*
X334010Y316230D01*
D26*
X334010Y316230D03*
D27*
X86610Y260100D02*
X86610Y247290D01*
X86610Y260100D02*
X86360Y260350D01*
X86360Y261620D01*
D26*
X86360Y261620D03*
D27*
X234950Y387350D02*
X264820Y387350D01*
X209804Y412496D02*
X191643Y412496D01*
X210185Y412115D02*
X234950Y387350D01*
X210185Y412115D02*
X209804Y412496D01*
X209804Y437896D02*
X191643Y437896D01*
X218440Y429260D02*
X218440Y420370D01*
X210185Y412115D01*
X218440Y429260D02*
X209804Y437896D01*
X260350Y349250D02*
X264820Y349250D01*
X209804Y399796D02*
X191643Y399796D01*
X215900Y393700D02*
X260350Y349250D01*
X215900Y393700D02*
X209804Y399796D01*
X207264Y425196D02*
X191643Y425196D01*
X207264Y425196D02*
X209881Y422579D01*
X212421Y422579D01*
D26*
X212421Y422579D03*
X215900Y393700D03*
D27*
X345962Y332804D02*
X351256Y332804D01*
X352470Y331590D01*
X291416Y387350D02*
X283820Y387350D01*
X291416Y387350D02*
X345962Y332804D01*
X345962Y327804D02*
X351256Y327804D01*
X352470Y326590D01*
X324516Y349250D02*
X283820Y349250D01*
X324516Y349250D02*
X345962Y327804D01*
D25*
X491650Y321310D02*
X491650Y364490D01*
X491650Y321310D02*
X481930Y311590D01*
X437470Y311590D01*
X436880Y311000D01*
X436880Y297180D01*
X436290Y296590D01*
X422470Y296590D01*
D27*
X341790Y533400D02*
X312790Y562400D01*
X304690Y562400D01*
X341790Y533400D02*
X358300Y549910D01*
X440690Y549910D02*
X444500Y546100D01*
X457200Y546100D01*
X482600Y381000D02*
X495300Y368300D01*
X495300Y368140D01*
X491650Y364490D01*
X440690Y549910D02*
X358300Y549910D01*
X457200Y546100D02*
X482600Y520700D01*
X482600Y381000D01*
X453190Y351590D02*
X437470Y351590D01*
X453190Y351590D02*
X482600Y381000D01*
X469900Y381000D01*
D26*
X469900Y381000D03*
D27*
X367470Y381590D02*
X367470Y381830D01*
D26*
X425450Y220980D03*
X425450Y285750D03*
D27*
X422470Y288730D01*
X422470Y296590D01*
X425450Y220980D02*
X425450Y203200D01*
X494030Y318930D02*
X491650Y321310D01*
X494030Y318930D02*
X494030Y284480D01*
X543560Y284480D01*
X543720Y284640D01*
X543720Y321310D01*
D26*
X360680Y408940D03*
D27*
X360680Y388620D01*
X367470Y381830D01*
X154280Y241300D02*
X151740Y238760D01*
X154280Y241300D02*
X177800Y241300D01*
X217580Y256380D02*
X236060Y256380D01*
X236220Y256540D01*
X251620Y256540D01*
X263050Y245110D01*
X263050Y280670D01*
X264320Y281940D01*
X264320Y313690D01*
X263050Y314960D01*
X247650Y562610D02*
X36170Y562610D01*
D26*
X247650Y562610D03*
X330200Y562610D03*
D27*
X329990Y562400D01*
X312790Y562400D01*
X263050Y314960D02*
X279560Y298450D01*
X351790Y298450D02*
X352470Y299130D01*
X352470Y311590D01*
X351790Y298450D02*
X279560Y298450D01*
X352470Y299130D02*
X352470Y253320D01*
X353060Y252730D01*
X425450Y252730D01*
X425450Y254000D01*
D26*
X425450Y254000D03*
X177800Y256540D03*
X205740Y256540D03*
D27*
X217420Y256540D01*
X217580Y256380D01*
X177800Y256540D02*
X177800Y241300D01*
X266700Y561390D02*
X265690Y562400D01*
X266700Y561390D02*
X266700Y546100D01*
D26*
X266700Y546100D03*
X419100Y520700D03*
D27*
X427380Y520700D01*
X436270Y511810D01*
X259190Y562400D02*
X259190Y589390D01*
X266700Y596900D01*
X394360Y596900D01*
X415950Y575310D01*
X428650Y575310D01*
X17170Y562610D02*
X17170Y590550D01*
X18440Y591820D01*
X544220Y363220D02*
X546100Y361340D01*
X546100Y347980D01*
X643890Y347980D02*
X652780Y339090D01*
X643890Y347980D02*
X546100Y347980D01*
X352470Y321590D02*
X337540Y321590D01*
X330200Y328930D02*
X330200Y330200D01*
D26*
X330200Y330200D03*
X330200Y234950D03*
D27*
X400050Y234950D01*
X400050Y203200D01*
X337540Y321590D02*
X330200Y328930D01*
X374650Y214630D02*
X374650Y203200D01*
X374650Y214630D02*
X368300Y220980D01*
D26*
X368300Y220980D03*
X368300Y283210D03*
D27*
X367470Y284040D01*
X367470Y296590D01*
X132740Y238760D02*
X129700Y235720D01*
X129700Y203200D01*
X93320Y203200D01*
X86610Y209910D01*
X506730Y452780D02*
X508000Y451510D01*
X508000Y431800D01*
D26*
X508000Y431800D03*
X457200Y338122D03*
D27*
X149250Y222250D02*
X132740Y238760D01*
X160020Y222250D02*
X161290Y220980D01*
D26*
X161290Y220980D03*
X355600Y242570D03*
D27*
X455930Y242570D01*
X457200Y241300D01*
D26*
X457200Y241300D03*
X457200Y325120D03*
D27*
X457200Y338122D01*
X160020Y222250D02*
X149250Y222250D01*
X437510Y341630D02*
X453692Y341630D01*
X437510Y341630D02*
X437470Y341590D01*
X453692Y341630D02*
X457200Y338122D01*
X391160Y407060D02*
X391160Y431190D01*
X391160Y407060D02*
X402470Y395750D01*
X402470Y381590D01*
X408684Y382804D02*
X408684Y400798D01*
X408684Y382804D02*
X407470Y381590D01*
X416560Y408674D02*
X416560Y431190D01*
X416560Y408674D02*
X408684Y400798D01*
X285750Y561840D02*
X285190Y562400D01*
X285750Y561840D02*
X285750Y547370D01*
X287020Y546100D01*
D26*
X317500Y546100D03*
X488418Y482600D03*
D27*
X499238Y471780D01*
X506730Y471780D01*
X317500Y546100D02*
X287020Y546100D01*
X272190Y504400D02*
X272190Y458670D01*
X280670Y450190D01*
X279400Y503690D02*
X278690Y504400D01*
X318770Y457200D02*
X318770Y450190D01*
X318770Y457200D02*
X302260Y473710D01*
X279400Y490220D02*
X279400Y503690D01*
X279400Y490220D02*
X295910Y473710D01*
X302260Y473710D01*
X291690Y493170D02*
X291690Y504400D01*
X291690Y493170D02*
X295402Y489458D01*
X303523Y489458D01*
X316731Y476250D01*
X340360Y476250D01*
X351790Y464820D01*
X353060Y464820D01*
D26*
X353060Y464820D03*
X417830Y463550D03*
D27*
X416560Y462280D01*
X416560Y450190D01*
X285190Y504400D02*
X285190Y516330D01*
X289560Y520700D02*
X292100Y520700D01*
D26*
X292100Y520700D03*
X372745Y478155D03*
D27*
X372745Y457175D01*
X365760Y450190D01*
X289560Y520700D02*
X285190Y516330D01*
X298190Y504400D02*
X298190Y496830D01*
X300990Y494030D01*
X391160Y494030D02*
X391160Y450190D01*
X391160Y494030D02*
X300990Y494030D01*
X304690Y504400D02*
X304800Y504510D01*
X441960Y495300D02*
X441960Y450190D01*
X304800Y504510D02*
X304800Y520700D01*
X386080Y520700D01*
X411480Y495300D01*
X441960Y495300D01*
X317500Y394360D02*
X280670Y431190D01*
X317500Y394360D02*
X317500Y393700D01*
D26*
X317500Y393700D03*
X435914Y389586D03*
D27*
X427918Y381590D01*
X422470Y381590D01*
X397470Y389320D02*
X365760Y421030D01*
X365760Y431190D01*
X397470Y389320D02*
X397470Y381590D01*
X412470Y381590D02*
X412470Y389000D01*
X441960Y418490D02*
X441960Y431190D01*
X441960Y418490D02*
X412470Y389000D01*
X318770Y420370D02*
X318770Y431190D01*
X318770Y420370D02*
X317500Y419100D01*
D26*
X317500Y419100D03*
X444500Y406400D03*
D27*
X420462Y389876D02*
X418684Y388098D01*
X427976Y389876D02*
X444500Y406400D01*
X418684Y388098D02*
X418684Y382804D01*
X417470Y381590D01*
X420462Y389876D02*
X427976Y389876D01*
X447650Y575310D02*
X500380Y575310D01*
X513080Y562610D01*
X513690Y562610D01*
X612750Y463550D01*
X654089Y463550D01*
X654300Y463761D01*
X494690Y562610D02*
X471830Y539750D01*
X471170Y539750D01*
X471474Y540054D01*
D26*
X471474Y540054D03*
X462280Y530860D03*
D27*
X455270Y523850D01*
X455270Y511810D01*
X494690Y562610D02*
X583590Y473710D01*
X583590Y412961D01*
X654300Y412961D01*
X397470Y296590D02*
X397470Y264200D01*
X397510Y264160D01*
X652780Y264160D01*
X652780Y313690D01*
M02*
