M48
;GenerationSoftware,Autodesk,EAGLE,9.6.2*%
;CreationDate,2023-10-31T06:47:07Z*%
FMAT,2
ICI,OFF
METRIC,TZ,000.000
T6C0.300
T5C0.800
T4C1.000
T3C1.100
T2C1.300
T1C1.651
%
G90
M71
T1
X6985Y30912
X17602Y52857
X17602Y30836
X6985Y52934
T2
X65430Y41296
X65430Y46376
T3
X42545Y20320
X40005Y20320
X37465Y20320
X34925Y20320
T4
X16332Y49225
X16332Y34544
T5
X65278Y31369
X65278Y33909
T6
X21844Y33782
X58420Y36830
X58674Y31623
X51181Y38354
X51181Y30099
X30226Y31496
X30226Y28194
X30226Y24511
X30226Y19939
X23241Y22987
X17145Y20320
X37211Y40005
X45720Y34671
X41783Y27940
X33401Y31623
X8636Y26162
X21242Y42258
X21590Y39370
X46990Y38100
X42545Y22098
X42545Y28575
X36068Y40894
X24765Y56261
X33020Y56261
X42545Y25400
X39497Y56642
X20574Y25654
X26670Y54610
X41910Y52070
X33020Y33020
X33020Y23495
X36830Y22098
X36830Y28321
X50800Y43180
X45720Y33812
X16129Y22098
X35560Y24257
X45720Y24130
X45720Y32512
X31750Y54610
X48842Y48260
X35306Y46482
X41783Y46355
X29210Y52070
X37275Y47815
X31750Y39370
X21717Y35814
X31750Y41910
X44450Y40640
X47147Y54005
X46228Y53086
X21590Y31750
X27716Y58420
X34290Y57150
X5461Y59182
X17780Y25654
X26670Y58420
X28575Y58674
X29845Y58674
X25400Y48641
X39497Y53340
X21971Y50038
X21844Y45085
X21844Y37465
X43591Y38959
M30