G04 EAGLE Gerber RS-274X export*
G75*
%MOMM*%
%FSLAX34Y34*%
%LPD*%
%INBottom Copper*%
%IPPOS*%
%AMOC8*
5,1,8,0,0,1.08239X$1,22.5*%
G01*
%ADD10C,1.800000*%
%ADD11C,2.971800*%
%ADD12C,1.440000*%
%ADD13C,1.980000*%
%ADD14C,2.340000*%
%ADD15C,0.452400*%
%ADD16C,0.254000*%
%ADD17C,0.152400*%

G36*
X705158Y179804D02*
X705158Y179804D01*
X705177Y179802D01*
X705279Y179824D01*
X705381Y179840D01*
X705398Y179850D01*
X705418Y179854D01*
X705507Y179907D01*
X705598Y179956D01*
X705612Y179970D01*
X705629Y179980D01*
X705696Y180059D01*
X705768Y180134D01*
X705776Y180152D01*
X705789Y180167D01*
X705828Y180263D01*
X705871Y180357D01*
X705873Y180377D01*
X705881Y180395D01*
X705899Y180562D01*
X705899Y606738D01*
X705896Y606758D01*
X705898Y606777D01*
X705876Y606879D01*
X705860Y606981D01*
X705850Y606998D01*
X705846Y607018D01*
X705793Y607107D01*
X705744Y607198D01*
X705730Y607212D01*
X705720Y607229D01*
X705641Y607296D01*
X705566Y607368D01*
X705548Y607376D01*
X705533Y607389D01*
X705437Y607428D01*
X705343Y607471D01*
X705323Y607473D01*
X705305Y607481D01*
X705138Y607499D01*
X2762Y607499D01*
X2742Y607496D01*
X2723Y607498D01*
X2621Y607476D01*
X2519Y607460D01*
X2502Y607450D01*
X2482Y607446D01*
X2393Y607393D01*
X2302Y607344D01*
X2288Y607330D01*
X2271Y607320D01*
X2204Y607241D01*
X2132Y607166D01*
X2124Y607148D01*
X2111Y607133D01*
X2072Y607037D01*
X2029Y606943D01*
X2027Y606923D01*
X2019Y606905D01*
X2001Y606738D01*
X2001Y180562D01*
X2004Y180542D01*
X2002Y180523D01*
X2024Y180421D01*
X2040Y180319D01*
X2050Y180302D01*
X2054Y180282D01*
X2107Y180193D01*
X2156Y180102D01*
X2170Y180088D01*
X2180Y180071D01*
X2259Y180004D01*
X2334Y179932D01*
X2352Y179924D01*
X2367Y179911D01*
X2463Y179872D01*
X2557Y179829D01*
X2577Y179827D01*
X2595Y179819D01*
X2762Y179801D01*
X705138Y179801D01*
X705158Y179804D01*
G37*
%LPC*%
G36*
X51783Y513206D02*
X51783Y513206D01*
X45854Y515662D01*
X41317Y520199D01*
X38861Y526128D01*
X38861Y532544D01*
X41317Y538473D01*
X45854Y543010D01*
X51783Y545466D01*
X87917Y545466D01*
X93846Y543010D01*
X98383Y538473D01*
X100839Y532544D01*
X100839Y526128D01*
X98383Y520199D01*
X93846Y515662D01*
X87917Y513206D01*
X51783Y513206D01*
G37*
%LPD*%
%LPC*%
G36*
X157955Y512444D02*
X157955Y512444D01*
X152026Y514900D01*
X147489Y519437D01*
X145033Y525366D01*
X145033Y531782D01*
X147489Y537711D01*
X152026Y542248D01*
X157955Y544704D01*
X194089Y544704D01*
X200018Y542248D01*
X204555Y537711D01*
X207011Y531782D01*
X207011Y525366D01*
X204555Y519437D01*
X200018Y514900D01*
X194089Y512444D01*
X157955Y512444D01*
G37*
%LPD*%
%LPC*%
G36*
X157955Y292226D02*
X157955Y292226D01*
X152026Y294682D01*
X147489Y299219D01*
X145033Y305148D01*
X145033Y311564D01*
X147489Y317493D01*
X152026Y322030D01*
X157955Y324486D01*
X194089Y324486D01*
X200018Y322030D01*
X204555Y317493D01*
X207011Y311564D01*
X207011Y305148D01*
X204555Y299219D01*
X200018Y294682D01*
X194089Y292226D01*
X157955Y292226D01*
G37*
%LPD*%
%LPC*%
G36*
X51783Y292988D02*
X51783Y292988D01*
X45854Y295444D01*
X41317Y299981D01*
X38861Y305910D01*
X38861Y312326D01*
X41317Y318255D01*
X45854Y322792D01*
X51783Y325248D01*
X87917Y325248D01*
X93846Y322792D01*
X98383Y318255D01*
X100839Y312326D01*
X100839Y305910D01*
X98383Y299981D01*
X93846Y295444D01*
X87917Y292988D01*
X51783Y292988D01*
G37*
%LPD*%
%LPC*%
G36*
X468437Y377467D02*
X468437Y377467D01*
X467160Y378744D01*
X467086Y378797D01*
X467016Y378857D01*
X466986Y378869D01*
X466960Y378888D01*
X466873Y378915D01*
X466788Y378949D01*
X466747Y378953D01*
X466725Y378960D01*
X466693Y378959D01*
X466621Y378967D01*
X452548Y378967D01*
X440746Y390769D01*
X440688Y390811D01*
X440636Y390860D01*
X440589Y390882D01*
X440547Y390913D01*
X440478Y390934D01*
X440413Y390964D01*
X440361Y390970D01*
X440311Y390985D01*
X440240Y390983D01*
X440168Y390991D01*
X440118Y390980D01*
X440066Y390979D01*
X439998Y390954D01*
X439928Y390939D01*
X439883Y390912D01*
X439835Y390894D01*
X439778Y390849D01*
X439717Y390813D01*
X439683Y390773D01*
X439642Y390740D01*
X439604Y390680D01*
X439557Y390626D01*
X439538Y390577D01*
X439509Y390534D01*
X439492Y390464D01*
X439465Y390397D01*
X439457Y390326D01*
X439449Y390295D01*
X439451Y390272D01*
X439447Y390231D01*
X439447Y388123D01*
X437377Y386053D01*
X434451Y386053D01*
X432381Y388123D01*
X432381Y389929D01*
X432380Y389939D01*
X432380Y389945D01*
X432373Y389976D01*
X432366Y390019D01*
X432359Y390110D01*
X432347Y390140D01*
X432341Y390171D01*
X432299Y390252D01*
X432263Y390336D01*
X432237Y390368D01*
X432226Y390389D01*
X432203Y390411D01*
X432158Y390467D01*
X431181Y391444D01*
X431107Y391497D01*
X431038Y391557D01*
X431007Y391569D01*
X430981Y391588D01*
X430894Y391615D01*
X430809Y391649D01*
X430768Y391653D01*
X430746Y391660D01*
X430714Y391659D01*
X430643Y391667D01*
X320779Y391667D01*
X320689Y391653D01*
X320598Y391645D01*
X320568Y391633D01*
X320536Y391628D01*
X320455Y391585D01*
X320371Y391549D01*
X320339Y391523D01*
X320319Y391512D01*
X320296Y391489D01*
X320240Y391444D01*
X318963Y390167D01*
X316037Y390167D01*
X313967Y392237D01*
X313967Y395163D01*
X316037Y397233D01*
X318963Y397233D01*
X320240Y395956D01*
X320314Y395903D01*
X320384Y395843D01*
X320414Y395831D01*
X320440Y395812D01*
X320527Y395785D01*
X320612Y395751D01*
X320653Y395747D01*
X320675Y395740D01*
X320707Y395741D01*
X320779Y395733D01*
X432642Y395733D01*
X434056Y394319D01*
X435033Y393342D01*
X435107Y393289D01*
X435176Y393229D01*
X435207Y393217D01*
X435233Y393198D01*
X435320Y393171D01*
X435405Y393137D01*
X435445Y393133D01*
X435468Y393126D01*
X435500Y393127D01*
X435571Y393119D01*
X436559Y393119D01*
X436629Y393130D01*
X436701Y393132D01*
X436750Y393150D01*
X436801Y393159D01*
X436865Y393192D01*
X436932Y393217D01*
X436973Y393249D01*
X437019Y393274D01*
X437068Y393326D01*
X437124Y393370D01*
X437152Y393414D01*
X437188Y393452D01*
X437218Y393517D01*
X437257Y393577D01*
X437270Y393628D01*
X437292Y393675D01*
X437300Y393746D01*
X437317Y393816D01*
X437313Y393868D01*
X437319Y393919D01*
X437304Y393990D01*
X437298Y394061D01*
X437278Y394109D01*
X437267Y394160D01*
X437230Y394221D01*
X437202Y394287D01*
X437157Y394343D01*
X437140Y394371D01*
X437123Y394386D01*
X437097Y394418D01*
X424831Y406684D01*
X424757Y406737D01*
X424688Y406797D01*
X424657Y406809D01*
X424631Y406828D01*
X424544Y406855D01*
X424459Y406889D01*
X424418Y406893D01*
X424396Y406900D01*
X424364Y406899D01*
X424293Y406907D01*
X363959Y406907D01*
X363869Y406893D01*
X363778Y406885D01*
X363748Y406873D01*
X363716Y406868D01*
X363635Y406825D01*
X363551Y406789D01*
X363519Y406763D01*
X363499Y406752D01*
X363476Y406729D01*
X363420Y406684D01*
X362143Y405407D01*
X359217Y405407D01*
X357147Y407477D01*
X357147Y410403D01*
X359217Y412473D01*
X362143Y412473D01*
X363420Y411196D01*
X363494Y411143D01*
X363564Y411083D01*
X363594Y411071D01*
X363620Y411052D01*
X363707Y411025D01*
X363792Y410991D01*
X363833Y410987D01*
X363855Y410980D01*
X363887Y410981D01*
X363959Y410973D01*
X426292Y410973D01*
X454009Y383256D01*
X454083Y383203D01*
X454152Y383143D01*
X454183Y383131D01*
X454209Y383112D01*
X454296Y383085D01*
X454381Y383051D01*
X454422Y383047D01*
X454444Y383040D01*
X454476Y383041D01*
X454547Y383033D01*
X466621Y383033D01*
X466711Y383047D01*
X466802Y383055D01*
X466832Y383067D01*
X466864Y383072D01*
X466945Y383115D01*
X467029Y383151D01*
X467061Y383177D01*
X467081Y383188D01*
X467101Y383208D01*
X467103Y383209D01*
X467108Y383215D01*
X467160Y383256D01*
X468437Y384533D01*
X471363Y384533D01*
X473433Y382463D01*
X473433Y379537D01*
X471363Y377467D01*
X468437Y377467D01*
G37*
%LPD*%
%LPC*%
G36*
X159827Y217447D02*
X159827Y217447D01*
X157757Y219517D01*
X157757Y222443D01*
X159827Y224513D01*
X162753Y224513D01*
X164030Y223236D01*
X164104Y223183D01*
X164174Y223123D01*
X164204Y223111D01*
X164230Y223092D01*
X164317Y223065D01*
X164402Y223031D01*
X164443Y223027D01*
X164465Y223020D01*
X164497Y223021D01*
X164569Y223013D01*
X348996Y223013D01*
X349016Y223016D01*
X349035Y223014D01*
X349137Y223036D01*
X349239Y223052D01*
X349256Y223062D01*
X349276Y223066D01*
X349365Y223119D01*
X349456Y223168D01*
X349470Y223182D01*
X349487Y223192D01*
X349554Y223271D01*
X349626Y223346D01*
X349634Y223364D01*
X349647Y223379D01*
X349686Y223475D01*
X349729Y223569D01*
X349731Y223589D01*
X349739Y223607D01*
X349757Y223774D01*
X349757Y243412D01*
X350948Y244603D01*
X352321Y244603D01*
X352411Y244617D01*
X352502Y244625D01*
X352532Y244637D01*
X352564Y244642D01*
X352645Y244685D01*
X352729Y244721D01*
X352761Y244747D01*
X352781Y244758D01*
X352804Y244781D01*
X352860Y244826D01*
X354137Y246103D01*
X357063Y246103D01*
X359133Y244033D01*
X359133Y241107D01*
X357063Y239037D01*
X354584Y239037D01*
X354564Y239034D01*
X354545Y239036D01*
X354443Y239014D01*
X354341Y238998D01*
X354324Y238988D01*
X354304Y238984D01*
X354215Y238931D01*
X354124Y238882D01*
X354110Y238868D01*
X354093Y238858D01*
X354026Y238779D01*
X353954Y238704D01*
X353946Y238686D01*
X353933Y238671D01*
X353894Y238575D01*
X353851Y238481D01*
X353849Y238461D01*
X353841Y238443D01*
X353823Y238276D01*
X353823Y221408D01*
X351362Y218947D01*
X164569Y218947D01*
X164479Y218933D01*
X164388Y218925D01*
X164358Y218913D01*
X164326Y218908D01*
X164245Y218865D01*
X164161Y218829D01*
X164129Y218803D01*
X164109Y218792D01*
X164086Y218769D01*
X164030Y218724D01*
X162753Y217447D01*
X159827Y217447D01*
G37*
%LPD*%
%LPC*%
G36*
X486955Y479067D02*
X486955Y479067D01*
X485678Y480344D01*
X485604Y480397D01*
X485534Y480457D01*
X485504Y480469D01*
X485478Y480488D01*
X485391Y480515D01*
X485306Y480549D01*
X485265Y480553D01*
X485243Y480560D01*
X485211Y480559D01*
X485139Y480567D01*
X481758Y480567D01*
X418481Y543844D01*
X418407Y543897D01*
X418338Y543957D01*
X418307Y543969D01*
X418281Y543988D01*
X418194Y544015D01*
X418109Y544049D01*
X418068Y544053D01*
X418046Y544060D01*
X418014Y544059D01*
X417943Y544067D01*
X320779Y544067D01*
X320689Y544053D01*
X320598Y544045D01*
X320568Y544033D01*
X320536Y544028D01*
X320455Y543985D01*
X320371Y543949D01*
X320339Y543923D01*
X320319Y543912D01*
X320296Y543889D01*
X320240Y543844D01*
X318963Y542567D01*
X316037Y542567D01*
X313967Y544637D01*
X313967Y547563D01*
X316037Y549633D01*
X318963Y549633D01*
X320240Y548356D01*
X320314Y548303D01*
X320384Y548243D01*
X320414Y548231D01*
X320440Y548212D01*
X320527Y548185D01*
X320612Y548151D01*
X320653Y548147D01*
X320675Y548140D01*
X320707Y548141D01*
X320779Y548133D01*
X419942Y548133D01*
X483219Y484856D01*
X483293Y484803D01*
X483362Y484743D01*
X483393Y484731D01*
X483419Y484712D01*
X483506Y484685D01*
X483591Y484651D01*
X483632Y484647D01*
X483654Y484640D01*
X483686Y484641D01*
X483757Y484633D01*
X485139Y484633D01*
X485229Y484647D01*
X485320Y484655D01*
X485350Y484667D01*
X485382Y484672D01*
X485463Y484715D01*
X485547Y484751D01*
X485579Y484777D01*
X485599Y484788D01*
X485622Y484811D01*
X485678Y484856D01*
X486955Y486133D01*
X489881Y486133D01*
X491951Y484063D01*
X491951Y481137D01*
X489881Y479067D01*
X486955Y479067D01*
G37*
%LPD*%
%LPC*%
G36*
X342058Y505967D02*
X342058Y505967D01*
X304181Y543844D01*
X304107Y543897D01*
X304038Y543957D01*
X304007Y543969D01*
X303981Y543988D01*
X303894Y544015D01*
X303809Y544049D01*
X303768Y544053D01*
X303746Y544060D01*
X303714Y544059D01*
X303643Y544067D01*
X269979Y544067D01*
X269889Y544053D01*
X269798Y544045D01*
X269768Y544033D01*
X269736Y544028D01*
X269655Y543985D01*
X269571Y543949D01*
X269539Y543923D01*
X269519Y543912D01*
X269496Y543889D01*
X269440Y543844D01*
X268163Y542567D01*
X265237Y542567D01*
X263167Y544637D01*
X263167Y547563D01*
X265237Y549633D01*
X268163Y549633D01*
X269440Y548356D01*
X269514Y548303D01*
X269584Y548243D01*
X269614Y548231D01*
X269640Y548212D01*
X269727Y548185D01*
X269812Y548151D01*
X269853Y548147D01*
X269875Y548140D01*
X269907Y548141D01*
X269979Y548133D01*
X305642Y548133D01*
X343519Y510256D01*
X343593Y510203D01*
X343662Y510143D01*
X343693Y510131D01*
X343719Y510112D01*
X343806Y510085D01*
X343891Y510051D01*
X343932Y510047D01*
X343954Y510040D01*
X343986Y510041D01*
X344057Y510033D01*
X405243Y510033D01*
X405333Y510047D01*
X405424Y510055D01*
X405453Y510067D01*
X405485Y510072D01*
X405566Y510115D01*
X405650Y510151D01*
X405682Y510177D01*
X405703Y510188D01*
X405725Y510211D01*
X405781Y510256D01*
X415344Y519819D01*
X415397Y519893D01*
X415457Y519962D01*
X415469Y519993D01*
X415488Y520019D01*
X415515Y520106D01*
X415549Y520191D01*
X415553Y520232D01*
X415560Y520254D01*
X415559Y520286D01*
X415567Y520357D01*
X415567Y522163D01*
X417637Y524233D01*
X420563Y524233D01*
X422633Y522163D01*
X422633Y519237D01*
X420563Y517167D01*
X418757Y517167D01*
X418667Y517153D01*
X418576Y517145D01*
X418547Y517133D01*
X418515Y517128D01*
X418434Y517085D01*
X418350Y517049D01*
X418318Y517023D01*
X418297Y517012D01*
X418275Y516989D01*
X418219Y516944D01*
X407242Y505967D01*
X342058Y505967D01*
G37*
%LPD*%
%LPC*%
G36*
X443037Y402867D02*
X443037Y402867D01*
X440967Y404937D01*
X440967Y406743D01*
X440953Y406833D01*
X440945Y406924D01*
X440933Y406953D01*
X440928Y406985D01*
X440885Y407066D01*
X440849Y407150D01*
X440823Y407182D01*
X440812Y407203D01*
X440789Y407225D01*
X440744Y407281D01*
X431181Y416844D01*
X431107Y416897D01*
X431038Y416957D01*
X431007Y416969D01*
X430981Y416988D01*
X430894Y417015D01*
X430809Y417049D01*
X430768Y417053D01*
X430746Y417060D01*
X430714Y417059D01*
X430643Y417067D01*
X320779Y417067D01*
X320689Y417053D01*
X320598Y417045D01*
X320568Y417033D01*
X320536Y417028D01*
X320455Y416985D01*
X320371Y416949D01*
X320339Y416923D01*
X320319Y416912D01*
X320296Y416889D01*
X320240Y416844D01*
X318963Y415567D01*
X316037Y415567D01*
X313967Y417637D01*
X313967Y420563D01*
X316037Y422633D01*
X318963Y422633D01*
X320240Y421356D01*
X320314Y421303D01*
X320384Y421243D01*
X320414Y421231D01*
X320440Y421212D01*
X320527Y421185D01*
X320612Y421151D01*
X320653Y421147D01*
X320675Y421140D01*
X320707Y421141D01*
X320779Y421133D01*
X432642Y421133D01*
X443619Y410156D01*
X443693Y410103D01*
X443762Y410043D01*
X443793Y410031D01*
X443819Y410012D01*
X443906Y409985D01*
X443991Y409951D01*
X444032Y409947D01*
X444054Y409940D01*
X444086Y409941D01*
X444157Y409933D01*
X445963Y409933D01*
X448033Y407863D01*
X448033Y404937D01*
X445963Y402867D01*
X443037Y402867D01*
G37*
%LPD*%
%LPC*%
G36*
X455737Y334589D02*
X455737Y334589D01*
X453667Y336659D01*
X453667Y339585D01*
X455737Y341655D01*
X458663Y341655D01*
X460242Y340076D01*
X460316Y340023D01*
X460386Y339963D01*
X460416Y339951D01*
X460442Y339932D01*
X460529Y339905D01*
X460614Y339871D01*
X460655Y339867D01*
X460677Y339860D01*
X460709Y339861D01*
X460781Y339853D01*
X463663Y339853D01*
X463753Y339867D01*
X463844Y339875D01*
X463873Y339887D01*
X463905Y339892D01*
X463986Y339935D01*
X464070Y339971D01*
X464102Y339997D01*
X464123Y340008D01*
X464145Y340031D01*
X464201Y340076D01*
X470184Y346059D01*
X470237Y346133D01*
X470297Y346202D01*
X470309Y346233D01*
X470328Y346259D01*
X470355Y346346D01*
X470389Y346431D01*
X470393Y346472D01*
X470400Y346494D01*
X470399Y346526D01*
X470407Y346597D01*
X470407Y358982D01*
X505744Y394319D01*
X505797Y394393D01*
X505857Y394462D01*
X505869Y394493D01*
X505888Y394519D01*
X505915Y394606D01*
X505949Y394691D01*
X505953Y394732D01*
X505960Y394754D01*
X505959Y394786D01*
X505967Y394857D01*
X505967Y428521D01*
X505953Y428611D01*
X505945Y428702D01*
X505933Y428732D01*
X505928Y428764D01*
X505885Y428845D01*
X505849Y428929D01*
X505823Y428961D01*
X505812Y428982D01*
X505789Y429004D01*
X505744Y429060D01*
X504467Y430337D01*
X504467Y433263D01*
X506537Y435333D01*
X509463Y435333D01*
X511533Y433263D01*
X511533Y430337D01*
X510256Y429060D01*
X510203Y428986D01*
X510143Y428916D01*
X510131Y428886D01*
X510112Y428860D01*
X510085Y428773D01*
X510051Y428688D01*
X510047Y428647D01*
X510040Y428625D01*
X510041Y428593D01*
X510033Y428521D01*
X510033Y392858D01*
X474696Y357521D01*
X474643Y357447D01*
X474583Y357378D01*
X474571Y357347D01*
X474552Y357321D01*
X474525Y357234D01*
X474491Y357149D01*
X474487Y357108D01*
X474480Y357086D01*
X474481Y357054D01*
X474473Y356983D01*
X474473Y344598D01*
X465662Y335787D01*
X460177Y335787D01*
X460087Y335773D01*
X459996Y335765D01*
X459966Y335753D01*
X459934Y335748D01*
X459853Y335705D01*
X459769Y335669D01*
X459737Y335643D01*
X459716Y335632D01*
X459694Y335609D01*
X459638Y335564D01*
X458663Y334589D01*
X455737Y334589D01*
G37*
%LPD*%
%LPC*%
G36*
X651720Y450790D02*
X651720Y450790D01*
X646953Y452765D01*
X643304Y456414D01*
X641329Y461181D01*
X641329Y466341D01*
X643304Y471108D01*
X646953Y474757D01*
X651720Y476732D01*
X656880Y476732D01*
X661647Y474757D01*
X665296Y471108D01*
X667271Y466341D01*
X667271Y461181D01*
X665296Y456414D01*
X661647Y452765D01*
X656880Y450790D01*
X651720Y450790D01*
G37*
%LPD*%
%LPC*%
G36*
X651720Y399990D02*
X651720Y399990D01*
X646953Y401965D01*
X643304Y405614D01*
X641329Y410381D01*
X641329Y415541D01*
X643304Y420308D01*
X646953Y423957D01*
X651720Y425932D01*
X656880Y425932D01*
X661647Y423957D01*
X665296Y420308D01*
X667271Y415541D01*
X667271Y410381D01*
X665296Y405614D01*
X661647Y401965D01*
X656880Y399990D01*
X651720Y399990D01*
G37*
%LPD*%
%LPC*%
G36*
X371282Y474622D02*
X371282Y474622D01*
X369212Y476692D01*
X369212Y477228D01*
X369198Y477318D01*
X369190Y477409D01*
X369178Y477438D01*
X369173Y477470D01*
X369130Y477551D01*
X369094Y477635D01*
X369068Y477667D01*
X369057Y477688D01*
X369034Y477710D01*
X368989Y477766D01*
X366267Y480488D01*
X366267Y483616D01*
X366264Y483636D01*
X366266Y483655D01*
X366244Y483757D01*
X366228Y483859D01*
X366218Y483876D01*
X366214Y483896D01*
X366161Y483985D01*
X366112Y484076D01*
X366098Y484090D01*
X366088Y484107D01*
X366009Y484174D01*
X365934Y484246D01*
X365916Y484254D01*
X365901Y484267D01*
X365805Y484306D01*
X365711Y484349D01*
X365691Y484351D01*
X365673Y484359D01*
X365506Y484377D01*
X350948Y484377D01*
X316881Y518444D01*
X316807Y518497D01*
X316738Y518557D01*
X316707Y518569D01*
X316681Y518588D01*
X316594Y518615D01*
X316509Y518649D01*
X316468Y518653D01*
X316446Y518660D01*
X316414Y518659D01*
X316343Y518667D01*
X295379Y518667D01*
X295289Y518653D01*
X295198Y518645D01*
X295168Y518633D01*
X295136Y518628D01*
X295055Y518585D01*
X294971Y518549D01*
X294939Y518523D01*
X294919Y518512D01*
X294896Y518489D01*
X294840Y518444D01*
X293563Y517167D01*
X290637Y517167D01*
X288567Y519237D01*
X288567Y522163D01*
X290637Y524233D01*
X293563Y524233D01*
X294840Y522956D01*
X294914Y522903D01*
X294984Y522843D01*
X295014Y522831D01*
X295040Y522812D01*
X295127Y522785D01*
X295212Y522751D01*
X295253Y522747D01*
X295275Y522740D01*
X295307Y522741D01*
X295379Y522733D01*
X318342Y522733D01*
X352409Y488666D01*
X352483Y488613D01*
X352552Y488553D01*
X352583Y488541D01*
X352609Y488522D01*
X352696Y488495D01*
X352781Y488461D01*
X352822Y488457D01*
X352844Y488450D01*
X352876Y488451D01*
X352947Y488443D01*
X367872Y488443D01*
X370333Y485982D01*
X370333Y482487D01*
X370347Y482397D01*
X370355Y482306D01*
X370367Y482277D01*
X370372Y482245D01*
X370415Y482164D01*
X370451Y482080D01*
X370477Y482048D01*
X370488Y482027D01*
X370511Y482005D01*
X370556Y481949D01*
X370594Y481911D01*
X370661Y481863D01*
X370666Y481858D01*
X370670Y481856D01*
X370737Y481798D01*
X370768Y481786D01*
X370794Y481767D01*
X370881Y481740D01*
X370966Y481706D01*
X371007Y481702D01*
X371029Y481695D01*
X371061Y481696D01*
X371132Y481688D01*
X374208Y481688D01*
X376278Y479618D01*
X376278Y476692D01*
X374208Y474622D01*
X371282Y474622D01*
G37*
%LPD*%
%LPC*%
G36*
X328737Y231417D02*
X328737Y231417D01*
X326667Y233487D01*
X326667Y236413D01*
X327944Y237690D01*
X327997Y237764D01*
X328057Y237834D01*
X328069Y237864D01*
X328088Y237890D01*
X328115Y237977D01*
X328149Y238062D01*
X328153Y238103D01*
X328160Y238125D01*
X328159Y238157D01*
X328167Y238229D01*
X328167Y310655D01*
X328153Y310745D01*
X328145Y310836D01*
X328133Y310866D01*
X328128Y310897D01*
X328085Y310978D01*
X328049Y311062D01*
X328023Y311094D01*
X328012Y311115D01*
X327989Y311137D01*
X327944Y311193D01*
X326159Y312978D01*
X326159Y319482D01*
X327944Y321267D01*
X327997Y321341D01*
X328057Y321410D01*
X328069Y321441D01*
X328088Y321467D01*
X328115Y321554D01*
X328149Y321639D01*
X328153Y321679D01*
X328160Y321702D01*
X328159Y321734D01*
X328167Y321805D01*
X328167Y326921D01*
X328153Y327011D01*
X328145Y327102D01*
X328133Y327132D01*
X328128Y327164D01*
X328085Y327245D01*
X328049Y327329D01*
X328023Y327361D01*
X328012Y327381D01*
X327989Y327404D01*
X327944Y327460D01*
X326667Y328737D01*
X326667Y331663D01*
X328737Y333733D01*
X331663Y333733D01*
X333733Y331663D01*
X333733Y328737D01*
X332456Y327460D01*
X332403Y327386D01*
X332343Y327316D01*
X332331Y327286D01*
X332312Y327260D01*
X332285Y327173D01*
X332251Y327088D01*
X332247Y327047D01*
X332240Y327025D01*
X332241Y326993D01*
X332233Y326921D01*
X332233Y319806D01*
X330448Y318021D01*
X330395Y317947D01*
X330335Y317877D01*
X330323Y317847D01*
X330304Y317821D01*
X330277Y317734D01*
X330243Y317649D01*
X330239Y317608D01*
X330232Y317586D01*
X330233Y317554D01*
X330225Y317483D01*
X330225Y314977D01*
X330239Y314887D01*
X330247Y314796D01*
X330259Y314767D01*
X330264Y314735D01*
X330307Y314654D01*
X330343Y314570D01*
X330369Y314538D01*
X330380Y314517D01*
X330403Y314495D01*
X330448Y314439D01*
X332233Y312654D01*
X332233Y238229D01*
X332247Y238139D01*
X332255Y238048D01*
X332267Y238018D01*
X332272Y237986D01*
X332315Y237905D01*
X332351Y237821D01*
X332377Y237789D01*
X332388Y237769D01*
X332411Y237746D01*
X332456Y237690D01*
X333733Y236413D01*
X333733Y233487D01*
X331663Y231417D01*
X328737Y231417D01*
G37*
%LPD*%
%LPC*%
G36*
X423228Y192029D02*
X423228Y192029D01*
X419122Y193730D01*
X415980Y196872D01*
X414279Y200978D01*
X414279Y205422D01*
X415980Y209528D01*
X419122Y212670D01*
X423228Y214371D01*
X427672Y214371D01*
X431778Y212670D01*
X434920Y209528D01*
X436621Y205422D01*
X436621Y200978D01*
X434920Y196872D01*
X431778Y193730D01*
X427672Y192029D01*
X423228Y192029D01*
G37*
%LPD*%
%LPC*%
G36*
X397828Y192029D02*
X397828Y192029D01*
X393722Y193730D01*
X390580Y196872D01*
X388879Y200978D01*
X388879Y205422D01*
X390580Y209528D01*
X393722Y212670D01*
X397828Y214371D01*
X402272Y214371D01*
X406378Y212670D01*
X409520Y209528D01*
X411221Y205422D01*
X411221Y200978D01*
X409520Y196872D01*
X406378Y193730D01*
X402272Y192029D01*
X397828Y192029D01*
G37*
%LPD*%
%LPC*%
G36*
X372428Y192029D02*
X372428Y192029D01*
X368322Y193730D01*
X365180Y196872D01*
X363479Y200978D01*
X363479Y205422D01*
X365180Y209528D01*
X368322Y212670D01*
X372428Y214371D01*
X376872Y214371D01*
X380978Y212670D01*
X384120Y209528D01*
X385821Y205422D01*
X385821Y200978D01*
X384120Y196872D01*
X380978Y193730D01*
X376872Y192029D01*
X372428Y192029D01*
G37*
%LPD*%
%LPC*%
G36*
X455737Y237767D02*
X455737Y237767D01*
X453667Y239837D01*
X453667Y242763D01*
X454944Y244040D01*
X454997Y244114D01*
X455057Y244184D01*
X455069Y244214D01*
X455088Y244240D01*
X455115Y244327D01*
X455149Y244412D01*
X455153Y244453D01*
X455160Y244475D01*
X455159Y244507D01*
X455167Y244579D01*
X455167Y321841D01*
X455153Y321931D01*
X455145Y322022D01*
X455133Y322052D01*
X455128Y322084D01*
X455085Y322165D01*
X455049Y322249D01*
X455023Y322281D01*
X455012Y322301D01*
X454989Y322324D01*
X454944Y322380D01*
X453667Y323657D01*
X453667Y326583D01*
X455737Y328653D01*
X458663Y328653D01*
X460733Y326583D01*
X460733Y323657D01*
X459456Y322380D01*
X459403Y322306D01*
X459343Y322236D01*
X459331Y322206D01*
X459312Y322180D01*
X459285Y322093D01*
X459251Y322008D01*
X459247Y321967D01*
X459240Y321945D01*
X459241Y321913D01*
X459233Y321841D01*
X459233Y244579D01*
X459247Y244489D01*
X459255Y244398D01*
X459267Y244368D01*
X459272Y244336D01*
X459315Y244255D01*
X459351Y244171D01*
X459377Y244139D01*
X459388Y244119D01*
X459411Y244096D01*
X459456Y244040D01*
X460733Y242763D01*
X460733Y239837D01*
X458663Y237767D01*
X455737Y237767D01*
G37*
%LPD*%
%LPC*%
G36*
X246187Y559077D02*
X246187Y559077D01*
X244117Y561147D01*
X244117Y564073D01*
X246187Y566143D01*
X249113Y566143D01*
X250390Y564866D01*
X250464Y564813D01*
X250534Y564753D01*
X250564Y564741D01*
X250590Y564722D01*
X250677Y564695D01*
X250762Y564661D01*
X250803Y564657D01*
X250825Y564650D01*
X250857Y564651D01*
X250929Y564643D01*
X326921Y564643D01*
X327011Y564657D01*
X327102Y564665D01*
X327132Y564677D01*
X327164Y564682D01*
X327245Y564725D01*
X327329Y564761D01*
X327361Y564787D01*
X327381Y564798D01*
X327404Y564821D01*
X327460Y564866D01*
X328737Y566143D01*
X331663Y566143D01*
X333733Y564073D01*
X333733Y561147D01*
X331663Y559077D01*
X328737Y559077D01*
X327460Y560354D01*
X327386Y560407D01*
X327316Y560467D01*
X327286Y560479D01*
X327260Y560498D01*
X327173Y560525D01*
X327088Y560559D01*
X327047Y560563D01*
X327025Y560570D01*
X326993Y560569D01*
X326921Y560577D01*
X250929Y560577D01*
X250839Y560563D01*
X250748Y560555D01*
X250718Y560543D01*
X250686Y560538D01*
X250605Y560495D01*
X250521Y560459D01*
X250489Y560433D01*
X250469Y560422D01*
X250446Y560399D01*
X250390Y560354D01*
X249113Y559077D01*
X246187Y559077D01*
G37*
%LPD*%
%LPC*%
G36*
X341437Y567967D02*
X341437Y567967D01*
X339367Y570037D01*
X339367Y571843D01*
X339363Y571870D01*
X339364Y571884D01*
X339352Y571942D01*
X339345Y572024D01*
X339333Y572053D01*
X339328Y572085D01*
X339316Y572108D01*
X339312Y572124D01*
X339279Y572180D01*
X339249Y572250D01*
X339223Y572282D01*
X339212Y572303D01*
X339196Y572318D01*
X339186Y572335D01*
X339169Y572350D01*
X339144Y572381D01*
X332859Y578666D01*
X332785Y578719D01*
X332716Y578779D01*
X332685Y578791D01*
X332659Y578810D01*
X332572Y578837D01*
X332487Y578871D01*
X332446Y578875D01*
X332424Y578882D01*
X332392Y578881D01*
X332321Y578889D01*
X282498Y578889D01*
X280211Y581176D01*
X280195Y581188D01*
X280182Y581204D01*
X280095Y581260D01*
X280011Y581320D01*
X279992Y581326D01*
X279975Y581337D01*
X279875Y581362D01*
X279776Y581392D01*
X279756Y581392D01*
X279737Y581397D01*
X279634Y581389D01*
X279530Y581386D01*
X279511Y581379D01*
X279492Y581377D01*
X279397Y581337D01*
X279299Y581301D01*
X279284Y581289D01*
X279265Y581281D01*
X279134Y581176D01*
X278625Y580667D01*
X275699Y580667D01*
X273629Y582737D01*
X273629Y585663D01*
X275699Y587733D01*
X278625Y587733D01*
X279902Y586456D01*
X279976Y586403D01*
X280046Y586343D01*
X280076Y586331D01*
X280102Y586312D01*
X280189Y586285D01*
X280274Y586251D01*
X280315Y586247D01*
X280337Y586240D01*
X280369Y586241D01*
X280441Y586233D01*
X280904Y586233D01*
X283959Y583178D01*
X284033Y583125D01*
X284103Y583065D01*
X284133Y583053D01*
X284159Y583034D01*
X284246Y583007D01*
X284331Y582973D01*
X284372Y582969D01*
X284394Y582962D01*
X284426Y582963D01*
X284497Y582955D01*
X334320Y582955D01*
X342019Y575256D01*
X342093Y575203D01*
X342162Y575143D01*
X342193Y575131D01*
X342219Y575112D01*
X342306Y575085D01*
X342391Y575051D01*
X342432Y575047D01*
X342454Y575040D01*
X342486Y575041D01*
X342557Y575033D01*
X344363Y575033D01*
X346433Y572963D01*
X346433Y570037D01*
X344363Y567967D01*
X341437Y567967D01*
G37*
%LPD*%
%LPC*%
G36*
X161279Y481981D02*
X161279Y481981D01*
X157504Y483545D01*
X154615Y486434D01*
X153051Y490209D01*
X153051Y494295D01*
X154615Y498070D01*
X157504Y500959D01*
X161279Y502523D01*
X165365Y502523D01*
X169140Y500959D01*
X172029Y498070D01*
X173593Y494295D01*
X173593Y490209D01*
X172029Y486434D01*
X169140Y483545D01*
X165365Y481981D01*
X161279Y481981D01*
G37*
%LPD*%
%LPC*%
G36*
X161279Y335169D02*
X161279Y335169D01*
X157504Y336733D01*
X154615Y339622D01*
X153051Y343397D01*
X153051Y347483D01*
X154615Y351258D01*
X157504Y354147D01*
X161279Y355711D01*
X165365Y355711D01*
X169140Y354147D01*
X172029Y351258D01*
X173593Y347483D01*
X173593Y343397D01*
X172029Y339622D01*
X169140Y336733D01*
X165365Y335169D01*
X161279Y335169D01*
G37*
%LPD*%
%LPC*%
G36*
X423987Y217447D02*
X423987Y217447D01*
X421917Y219517D01*
X421917Y222443D01*
X423194Y223720D01*
X423247Y223794D01*
X423307Y223864D01*
X423319Y223894D01*
X423338Y223920D01*
X423365Y224007D01*
X423399Y224092D01*
X423403Y224133D01*
X423410Y224155D01*
X423409Y224187D01*
X423417Y224259D01*
X423417Y250721D01*
X423403Y250811D01*
X423395Y250902D01*
X423383Y250932D01*
X423378Y250964D01*
X423335Y251045D01*
X423299Y251129D01*
X423273Y251161D01*
X423262Y251181D01*
X423239Y251204D01*
X423194Y251260D01*
X421917Y252537D01*
X421917Y255463D01*
X423194Y256740D01*
X423247Y256814D01*
X423307Y256884D01*
X423319Y256914D01*
X423338Y256940D01*
X423365Y257027D01*
X423399Y257112D01*
X423403Y257153D01*
X423410Y257175D01*
X423409Y257207D01*
X423417Y257279D01*
X423417Y282471D01*
X423403Y282561D01*
X423395Y282652D01*
X423383Y282682D01*
X423378Y282714D01*
X423335Y282795D01*
X423299Y282879D01*
X423273Y282911D01*
X423262Y282931D01*
X423239Y282954D01*
X423194Y283010D01*
X421917Y284287D01*
X421917Y287213D01*
X423987Y289283D01*
X426913Y289283D01*
X428983Y287213D01*
X428983Y284287D01*
X427706Y283010D01*
X427653Y282936D01*
X427593Y282866D01*
X427581Y282836D01*
X427562Y282810D01*
X427535Y282723D01*
X427501Y282638D01*
X427497Y282597D01*
X427490Y282575D01*
X427491Y282543D01*
X427483Y282471D01*
X427483Y257279D01*
X427497Y257189D01*
X427505Y257098D01*
X427517Y257068D01*
X427522Y257036D01*
X427565Y256955D01*
X427601Y256871D01*
X427627Y256839D01*
X427638Y256819D01*
X427661Y256796D01*
X427706Y256740D01*
X428983Y255463D01*
X428983Y252537D01*
X427706Y251260D01*
X427653Y251186D01*
X427593Y251116D01*
X427581Y251086D01*
X427562Y251060D01*
X427535Y250973D01*
X427501Y250888D01*
X427497Y250847D01*
X427490Y250825D01*
X427491Y250793D01*
X427483Y250721D01*
X427483Y224259D01*
X427497Y224169D01*
X427505Y224078D01*
X427517Y224048D01*
X427522Y224016D01*
X427565Y223935D01*
X427601Y223851D01*
X427627Y223819D01*
X427638Y223799D01*
X427661Y223776D01*
X427706Y223720D01*
X428983Y222443D01*
X428983Y219517D01*
X426913Y217447D01*
X423987Y217447D01*
G37*
%LPD*%
%LPC*%
G36*
X416367Y460017D02*
X416367Y460017D01*
X414290Y462094D01*
X414274Y462167D01*
X414258Y462269D01*
X414248Y462286D01*
X414244Y462306D01*
X414191Y462395D01*
X414142Y462486D01*
X414128Y462500D01*
X414118Y462517D01*
X414039Y462584D01*
X413964Y462656D01*
X413946Y462664D01*
X413931Y462677D01*
X413835Y462716D01*
X413741Y462759D01*
X413721Y462761D01*
X413703Y462769D01*
X413536Y462787D01*
X356339Y462787D01*
X356249Y462773D01*
X356158Y462765D01*
X356128Y462753D01*
X356096Y462748D01*
X356015Y462705D01*
X355931Y462669D01*
X355899Y462643D01*
X355879Y462632D01*
X355856Y462609D01*
X355800Y462564D01*
X354523Y461287D01*
X351597Y461287D01*
X349527Y463357D01*
X349527Y466283D01*
X351597Y468353D01*
X354523Y468353D01*
X355800Y467076D01*
X355874Y467023D01*
X355944Y466963D01*
X355974Y466951D01*
X356000Y466932D01*
X356087Y466905D01*
X356172Y466871D01*
X356213Y466867D01*
X356235Y466860D01*
X356267Y466861D01*
X356339Y466853D01*
X415821Y466853D01*
X415911Y466867D01*
X416002Y466875D01*
X416032Y466887D01*
X416064Y466892D01*
X416145Y466935D01*
X416229Y466971D01*
X416261Y466997D01*
X416281Y467008D01*
X416304Y467031D01*
X416360Y467076D01*
X416367Y467083D01*
X419293Y467083D01*
X421363Y465013D01*
X421363Y462087D01*
X419293Y460017D01*
X416367Y460017D01*
G37*
%LPD*%
%LPC*%
G36*
X366837Y217447D02*
X366837Y217447D01*
X364767Y219517D01*
X364767Y222443D01*
X366044Y223720D01*
X366097Y223794D01*
X366157Y223864D01*
X366169Y223894D01*
X366188Y223920D01*
X366215Y224007D01*
X366249Y224092D01*
X366253Y224133D01*
X366260Y224155D01*
X366259Y224187D01*
X366267Y224259D01*
X366267Y279931D01*
X366253Y280021D01*
X366245Y280112D01*
X366233Y280142D01*
X366228Y280174D01*
X366185Y280255D01*
X366149Y280339D01*
X366123Y280371D01*
X366112Y280391D01*
X366089Y280414D01*
X366044Y280470D01*
X364767Y281747D01*
X364767Y284673D01*
X366837Y286743D01*
X369763Y286743D01*
X371833Y284673D01*
X371833Y281747D01*
X370556Y280470D01*
X370503Y280396D01*
X370443Y280326D01*
X370431Y280296D01*
X370412Y280270D01*
X370385Y280183D01*
X370351Y280098D01*
X370347Y280057D01*
X370340Y280035D01*
X370341Y280003D01*
X370333Y279931D01*
X370333Y224259D01*
X370347Y224169D01*
X370355Y224078D01*
X370367Y224048D01*
X370372Y224016D01*
X370415Y223935D01*
X370451Y223851D01*
X370477Y223819D01*
X370488Y223799D01*
X370511Y223776D01*
X370556Y223720D01*
X371833Y222443D01*
X371833Y219517D01*
X369763Y217447D01*
X366837Y217447D01*
G37*
%LPD*%
%LPC*%
G36*
X214437Y313967D02*
X214437Y313967D01*
X212367Y316037D01*
X212367Y318963D01*
X213136Y319732D01*
X213189Y319806D01*
X213249Y319876D01*
X213261Y319906D01*
X213280Y319932D01*
X213307Y320019D01*
X213341Y320104D01*
X213345Y320145D01*
X213352Y320167D01*
X213351Y320199D01*
X213359Y320271D01*
X213359Y330046D01*
X213345Y330136D01*
X213337Y330227D01*
X213325Y330257D01*
X213320Y330289D01*
X213277Y330369D01*
X213241Y330453D01*
X213215Y330485D01*
X213204Y330506D01*
X213181Y330528D01*
X213136Y330584D01*
X209573Y334147D01*
X209573Y341493D01*
X214406Y346326D01*
X214459Y346400D01*
X214519Y346469D01*
X214531Y346499D01*
X214550Y346526D01*
X214577Y346613D01*
X214611Y346697D01*
X214615Y346738D01*
X214622Y346761D01*
X214621Y346793D01*
X214629Y346864D01*
X214629Y355369D01*
X214615Y355459D01*
X214607Y355550D01*
X214595Y355580D01*
X214590Y355612D01*
X214547Y355693D01*
X214511Y355777D01*
X214485Y355809D01*
X214474Y355829D01*
X214451Y355852D01*
X214406Y355908D01*
X213637Y356677D01*
X213637Y359603D01*
X215707Y361673D01*
X218633Y361673D01*
X220703Y359603D01*
X220703Y356677D01*
X219934Y355908D01*
X219881Y355834D01*
X219821Y355764D01*
X219809Y355734D01*
X219790Y355708D01*
X219763Y355621D01*
X219729Y355536D01*
X219725Y355495D01*
X219718Y355473D01*
X219719Y355441D01*
X219711Y355369D01*
X219711Y344444D01*
X214878Y339611D01*
X214825Y339537D01*
X214765Y339468D01*
X214753Y339437D01*
X214734Y339411D01*
X214707Y339324D01*
X214673Y339239D01*
X214669Y339198D01*
X214662Y339176D01*
X214663Y339144D01*
X214655Y339073D01*
X214655Y336567D01*
X214669Y336477D01*
X214677Y336386D01*
X214689Y336357D01*
X214694Y336325D01*
X214737Y336244D01*
X214773Y336160D01*
X214799Y336128D01*
X214810Y336107D01*
X214833Y336085D01*
X214878Y336029D01*
X218441Y332466D01*
X218441Y320271D01*
X218455Y320181D01*
X218463Y320090D01*
X218475Y320060D01*
X218480Y320028D01*
X218523Y319947D01*
X218559Y319863D01*
X218585Y319831D01*
X218596Y319811D01*
X218619Y319788D01*
X218664Y319732D01*
X219433Y318963D01*
X219433Y316037D01*
X217363Y313967D01*
X214437Y313967D01*
G37*
%LPD*%
%LPC*%
G36*
X214437Y390167D02*
X214437Y390167D01*
X212367Y392237D01*
X212367Y395163D01*
X214437Y397233D01*
X217363Y397233D01*
X218327Y396269D01*
X218344Y396257D01*
X218356Y396241D01*
X218443Y396185D01*
X218527Y396125D01*
X218546Y396119D01*
X218563Y396108D01*
X218663Y396083D01*
X218762Y396053D01*
X218782Y396053D01*
X218801Y396048D01*
X218904Y396056D01*
X219008Y396059D01*
X219027Y396066D01*
X219047Y396068D01*
X219141Y396108D01*
X219239Y396144D01*
X219255Y396156D01*
X219273Y396164D01*
X219404Y396269D01*
X226344Y403209D01*
X226397Y403283D01*
X226457Y403352D01*
X226469Y403383D01*
X226488Y403409D01*
X226515Y403496D01*
X226549Y403581D01*
X226553Y403622D01*
X226560Y403644D01*
X226559Y403676D01*
X226567Y403747D01*
X226567Y405243D01*
X226553Y405333D01*
X226545Y405424D01*
X226533Y405453D01*
X226528Y405485D01*
X226485Y405566D01*
X226449Y405650D01*
X226423Y405682D01*
X226412Y405703D01*
X226389Y405725D01*
X226344Y405781D01*
X213302Y418823D01*
X213228Y418876D01*
X213159Y418936D01*
X213128Y418948D01*
X213102Y418967D01*
X213015Y418994D01*
X212930Y419028D01*
X212889Y419032D01*
X212867Y419039D01*
X212835Y419038D01*
X212764Y419046D01*
X210958Y419046D01*
X208888Y421116D01*
X208888Y424042D01*
X210958Y426112D01*
X213884Y426112D01*
X215954Y424042D01*
X215954Y422236D01*
X215969Y422146D01*
X215976Y422055D01*
X215988Y422026D01*
X215994Y421994D01*
X216036Y421913D01*
X216072Y421829D01*
X216098Y421797D01*
X216109Y421776D01*
X216132Y421754D01*
X216177Y421698D01*
X230633Y407242D01*
X230633Y401748D01*
X220552Y391667D01*
X219179Y391667D01*
X219089Y391653D01*
X218998Y391645D01*
X218968Y391633D01*
X218936Y391628D01*
X218855Y391585D01*
X218771Y391549D01*
X218739Y391523D01*
X218719Y391512D01*
X218696Y391489D01*
X218640Y391444D01*
X217363Y390167D01*
X214437Y390167D01*
G37*
%LPD*%
%LPC*%
G36*
X651095Y305219D02*
X651095Y305219D01*
X647982Y306509D01*
X645599Y308892D01*
X644309Y312005D01*
X644309Y315375D01*
X645599Y318488D01*
X647982Y320871D01*
X651095Y322161D01*
X654465Y322161D01*
X657578Y320871D01*
X659961Y318488D01*
X661251Y315375D01*
X661251Y312005D01*
X659961Y308892D01*
X657578Y306509D01*
X654465Y305219D01*
X651095Y305219D01*
G37*
%LPD*%
%LPC*%
G36*
X651095Y330619D02*
X651095Y330619D01*
X647982Y331909D01*
X645599Y334292D01*
X644309Y337405D01*
X644309Y340775D01*
X645599Y343888D01*
X647982Y346271D01*
X651095Y347561D01*
X654465Y347561D01*
X657578Y346271D01*
X659961Y343888D01*
X661251Y340775D01*
X661251Y337405D01*
X659961Y334292D01*
X657578Y331909D01*
X654465Y330619D01*
X651095Y330619D01*
G37*
%LPD*%
%LPC*%
G36*
X176337Y253007D02*
X176337Y253007D01*
X174267Y255077D01*
X174267Y258003D01*
X176337Y260073D01*
X179263Y260073D01*
X180540Y258796D01*
X180614Y258743D01*
X180684Y258683D01*
X180714Y258671D01*
X180740Y258652D01*
X180827Y258625D01*
X180912Y258591D01*
X180953Y258587D01*
X180975Y258580D01*
X181007Y258581D01*
X181079Y258573D01*
X202461Y258573D01*
X202551Y258587D01*
X202642Y258595D01*
X202672Y258607D01*
X202704Y258612D01*
X202785Y258655D01*
X202869Y258691D01*
X202901Y258717D01*
X202921Y258728D01*
X202944Y258751D01*
X203000Y258796D01*
X204277Y260073D01*
X207203Y260073D01*
X209273Y258003D01*
X209273Y255077D01*
X207203Y253007D01*
X204277Y253007D01*
X203000Y254284D01*
X202926Y254337D01*
X202856Y254397D01*
X202826Y254409D01*
X202800Y254428D01*
X202713Y254455D01*
X202628Y254489D01*
X202587Y254493D01*
X202565Y254500D01*
X202533Y254499D01*
X202461Y254507D01*
X181079Y254507D01*
X180989Y254493D01*
X180898Y254485D01*
X180868Y254473D01*
X180836Y254468D01*
X180755Y254425D01*
X180671Y254389D01*
X180639Y254363D01*
X180619Y254352D01*
X180596Y254329D01*
X180540Y254284D01*
X179263Y253007D01*
X176337Y253007D01*
G37*
%LPD*%
%LPC*%
G36*
X460817Y527327D02*
X460817Y527327D01*
X458747Y529397D01*
X458747Y532323D01*
X460817Y534393D01*
X462623Y534393D01*
X462713Y534407D01*
X462804Y534415D01*
X462833Y534427D01*
X462865Y534432D01*
X462946Y534475D01*
X463030Y534511D01*
X463062Y534537D01*
X463083Y534548D01*
X463105Y534571D01*
X463161Y534616D01*
X467718Y539173D01*
X467771Y539247D01*
X467831Y539316D01*
X467843Y539347D01*
X467862Y539373D01*
X467889Y539460D01*
X467923Y539545D01*
X467927Y539586D01*
X467934Y539608D01*
X467933Y539640D01*
X467941Y539711D01*
X467941Y541517D01*
X470011Y543587D01*
X472937Y543587D01*
X475007Y541517D01*
X475007Y538591D01*
X472937Y536521D01*
X471131Y536521D01*
X471041Y536506D01*
X470950Y536499D01*
X470921Y536487D01*
X470889Y536481D01*
X470808Y536439D01*
X470724Y536403D01*
X470692Y536377D01*
X470671Y536366D01*
X470649Y536343D01*
X470593Y536298D01*
X466036Y531741D01*
X465983Y531667D01*
X465923Y531598D01*
X465911Y531567D01*
X465892Y531541D01*
X465865Y531454D01*
X465831Y531369D01*
X465827Y531328D01*
X465820Y531306D01*
X465821Y531274D01*
X465813Y531203D01*
X465813Y529397D01*
X463743Y527327D01*
X460817Y527327D01*
G37*
%LPD*%
%LPC*%
G36*
X350773Y204723D02*
X350773Y204723D01*
X350773Y215555D01*
X352163Y215334D01*
X354026Y214729D01*
X355770Y213840D01*
X357355Y212689D01*
X358739Y211305D01*
X359890Y209720D01*
X360779Y207976D01*
X361384Y206113D01*
X361605Y204723D01*
X350773Y204723D01*
G37*
%LPD*%
%LPC*%
G36*
X336895Y204723D02*
X336895Y204723D01*
X337116Y206113D01*
X337721Y207976D01*
X338610Y209720D01*
X339761Y211305D01*
X341145Y212689D01*
X342730Y213840D01*
X344474Y214729D01*
X346337Y215334D01*
X347727Y215555D01*
X347727Y204723D01*
X336895Y204723D01*
G37*
%LPD*%
%LPC*%
G36*
X350773Y201677D02*
X350773Y201677D01*
X361605Y201677D01*
X361384Y200287D01*
X360779Y198424D01*
X359890Y196680D01*
X358739Y195095D01*
X357355Y193711D01*
X355770Y192560D01*
X354026Y191671D01*
X352163Y191066D01*
X350773Y190845D01*
X350773Y201677D01*
G37*
%LPD*%
%LPC*%
G36*
X346337Y191066D02*
X346337Y191066D01*
X344474Y191671D01*
X342730Y192560D01*
X341145Y193711D01*
X339761Y195095D01*
X338610Y196680D01*
X337721Y198424D01*
X337116Y200287D01*
X336895Y201677D01*
X347727Y201677D01*
X347727Y190845D01*
X346337Y191066D01*
G37*
%LPD*%
%LPC*%
G36*
X349249Y203199D02*
X349249Y203199D01*
X349249Y203201D01*
X349251Y203201D01*
X349251Y203199D01*
X349249Y203199D01*
G37*
%LPD*%
D10*
X163322Y492252D03*
X163322Y345440D03*
D11*
X161163Y528574D02*
X190881Y528574D01*
X190881Y308356D02*
X161163Y308356D01*
X84709Y309118D02*
X54991Y309118D01*
X54991Y529336D02*
X84709Y529336D01*
D12*
X652780Y313690D03*
X652780Y339090D03*
D13*
X425450Y203200D03*
X400050Y203200D03*
X374650Y203200D03*
X349250Y203200D03*
D14*
X654300Y463761D03*
X654300Y412961D03*
D15*
X217170Y358140D03*
X215900Y317500D03*
D16*
X212114Y335200D02*
X212114Y340440D01*
X217170Y345496D02*
X217170Y358140D01*
X217170Y345496D02*
X212114Y340440D01*
X212114Y335200D02*
X215900Y331414D01*
X215900Y317500D01*
D15*
X277162Y584200D03*
D17*
X280062Y584200D01*
X283340Y580922D01*
X333478Y580922D02*
X342900Y571500D01*
X333478Y580922D02*
X283340Y580922D01*
D15*
X342900Y571500D03*
X54610Y591820D03*
X266700Y584200D03*
X285750Y586740D03*
X298450Y586740D03*
X254000Y486410D03*
X394970Y566420D03*
X394970Y533400D03*
X219710Y500380D03*
X218440Y450850D03*
X218440Y374650D03*
X218440Y337820D03*
X584200Y368300D03*
X586740Y316230D03*
X511810Y383540D03*
X511810Y300990D03*
X302260Y314960D03*
X302260Y281940D03*
X302260Y245110D03*
X302260Y199390D03*
X232410Y229870D03*
X171450Y203200D03*
X372110Y400050D03*
X457200Y346710D03*
X417830Y279400D03*
X334010Y316230D03*
X86360Y261620D03*
X212421Y422579D03*
D17*
X228600Y406400D01*
X228600Y402590D01*
X219710Y393700D02*
X215900Y393700D01*
D15*
X215900Y393700D03*
D17*
X219710Y393700D02*
X228600Y402590D01*
D15*
X469900Y381000D03*
D17*
X453390Y381000D01*
X425450Y408940D02*
X360680Y408940D01*
X425450Y408940D02*
X453390Y381000D01*
D15*
X425450Y220980D03*
X425450Y285750D03*
D17*
X425450Y254000D02*
X425450Y220980D01*
X425450Y254000D02*
X425450Y285750D01*
D15*
X360680Y408940D03*
X247650Y562610D03*
X330200Y562610D03*
D17*
X247650Y562610D01*
D15*
X425450Y254000D03*
X177800Y256540D03*
D17*
X205740Y256540D01*
D15*
X205740Y256540D03*
X266700Y546100D03*
D17*
X304800Y546100D01*
X342900Y508000D01*
X406400Y508000D02*
X419100Y520700D01*
D15*
X419100Y520700D03*
D17*
X406400Y508000D02*
X342900Y508000D01*
D15*
X330200Y330200D03*
D17*
X330200Y320648D01*
X328192Y318640D01*
X328192Y313820D01*
X330200Y311812D01*
X330200Y234950D01*
D15*
X330200Y234950D03*
X368300Y220980D03*
D17*
X368300Y283210D01*
D15*
X368300Y283210D03*
X508000Y431800D03*
D17*
X508000Y393700D01*
X457200Y338122D02*
X457502Y337820D01*
D15*
X457200Y338122D03*
D17*
X472440Y358140D02*
X508000Y393700D01*
X472440Y358140D02*
X472440Y345440D01*
X464820Y337820D01*
X457502Y337820D01*
D15*
X161290Y220980D03*
D17*
X350520Y220980D01*
X351790Y222250D01*
X351790Y242570D01*
X355600Y242570D01*
D15*
X355600Y242570D03*
X457200Y241300D03*
D17*
X457200Y325120D01*
D15*
X457200Y325120D03*
X317500Y546100D03*
D17*
X419100Y546100D01*
X482600Y482600D01*
X488418Y482600D01*
D15*
X488418Y482600D03*
X353060Y464820D03*
D17*
X417830Y464820D01*
X417830Y463550D01*
D15*
X417830Y463550D03*
X292100Y520700D03*
D17*
X317500Y520700D01*
X351790Y486410D02*
X367030Y486410D01*
X368300Y485140D01*
X368300Y481330D02*
X372110Y477520D01*
X372745Y478155D01*
D15*
X372745Y478155D03*
D17*
X351790Y486410D02*
X317500Y520700D01*
X368300Y485140D02*
X368300Y481330D01*
D15*
X317500Y393700D03*
D17*
X431800Y393700D02*
X435914Y389586D01*
D15*
X435914Y389586D03*
D17*
X431800Y393700D02*
X317500Y393700D01*
D15*
X317500Y419100D03*
D17*
X431800Y419100D01*
X444500Y406400D01*
D15*
X444500Y406400D03*
X471474Y540054D03*
D17*
X462280Y530860D01*
D15*
X462280Y530860D03*
M02*
